<svg width="70" height="65" viewBox="0 0 70 65" fill="none" xmlns="http://www.w3.org/2000/svg">
<g clip-path="url(#clip0_58_430)">
<path d="M23.1153 1.11693H12.0822L13.0763 2.79749H12.2788L10.957 0.563965H23.443L23.1153 1.11693Z" fill="#2C4E5E"/>
<path d="M67.9572 28.5804H63.2272V26.1626C63.2243 24.2771 62.4684 22.4696 61.1251 21.1364C59.7819 19.8032 57.9608 19.0529 56.0612 19.05H47.8137C45.914 19.0529 44.093 19.8032 42.7497 21.1364C41.4064 22.4696 40.6505 24.2771 40.6476 26.1626V28.5804H37.8183V14.5721C37.8198 14.4986 37.8065 14.4255 37.7791 14.3572C37.7518 14.2888 37.711 14.2266 37.6591 14.1741C37.6072 14.1216 37.5453 14.0799 37.477 14.0514C37.4087 14.0229 37.3353 14.0083 37.2612 14.0083H26.534C26.3834 14.0083 26.2389 14.0677 26.1324 14.1734C26.0258 14.2792 25.966 14.4226 25.966 14.5721V16.09C24.8225 15.4772 23.5404 15.1638 22.2409 15.1793H21.9351C21.8394 15.1471 21.7358 15.1471 21.6401 15.1793H15.0203C12.9923 15.1793 11.0473 15.9789 9.61326 17.4022C8.17923 18.8256 7.3736 20.756 7.3736 22.7689V28.5913H2.05368C1.51278 28.5913 0.993698 28.803 0.60918 29.1806C0.224661 29.5582 0.00575432 30.0711 0 30.608L0 32.7114C0.0142377 33.2425 0.236877 33.7472 0.620484 34.1178C1.00409 34.4884 1.51834 34.6957 2.05368 34.6955H5.07959V64.4362C5.07959 64.5857 5.13943 64.7291 5.24596 64.8348C5.35249 64.9406 5.49697 65 5.64763 65C5.79828 65 5.94276 64.9406 6.04929 64.8348C6.15582 64.7291 6.21567 64.5857 6.21567 64.4362V34.6955H40.6476V38.6205C40.6505 39.3615 40.9484 40.0714 41.4763 40.5953C42.0042 41.1193 42.7194 41.415 43.466 41.4178C44.0791 41.4188 44.675 41.2165 45.1592 40.8432V61.3569C45.1591 62.1481 45.4185 62.9179 45.8983 63.5497C46.378 64.1816 47.0519 64.6413 47.8182 64.8593C48.5845 65.0773 49.4015 65.0418 50.1457 64.7581C50.8898 64.4744 51.5207 63.958 51.9429 63.2869C52.3623 63.9608 52.9922 64.4801 53.7366 64.7658C54.4809 65.0514 55.299 65.0877 56.0661 64.8691C56.8332 64.6505 57.5072 64.1891 57.9856 63.555C58.4639 62.9209 58.7203 62.149 58.7157 61.3569V40.8865C59.1998 41.2599 59.7957 41.4621 60.4089 41.4612C61.1554 41.4583 61.8706 41.1627 62.3986 40.6387C62.9265 40.1147 63.2243 39.4049 63.2272 38.6638V34.6955H64.3196V64.4362C64.2954 64.5201 64.2913 64.6084 64.3073 64.6942C64.3234 64.78 64.3594 64.8609 64.4123 64.9306C64.4653 65.0002 64.5338 65.0567 64.6125 65.0957C64.6912 65.1346 64.7779 65.1548 64.8658 65.1548C64.9537 65.1548 65.0404 65.1346 65.1191 65.0957C65.1978 65.0567 65.2663 65.0002 65.3193 64.9306C65.3722 64.8609 65.4082 64.78 65.4242 64.6942C65.4403 64.6084 65.4361 64.5201 65.412 64.4362V34.6955H67.8808C68.4225 34.6955 68.9421 34.4819 69.3252 34.1017C69.7083 33.7215 69.9235 33.2057 69.9235 32.668V30.608C69.9239 30.0831 69.7192 29.5786 69.3525 29.2005C68.9858 28.8223 68.4856 28.6001 67.9572 28.5804ZM27.1021 15.1793H36.6932V28.6238H27.1021V15.1793ZM20.7553 16.2635L18.5705 19.7114L16.2984 16.2635H20.7553ZM8.46598 22.7689C8.46586 21.0567 9.1459 19.4134 10.3586 18.1955C11.5713 16.9777 13.2188 16.2835 14.9438 16.2635L18.1554 21.0558C18.2085 21.1311 18.2787 21.1928 18.3603 21.2362C18.4419 21.2795 18.5326 21.3031 18.6252 21.3052C18.719 21.3037 18.811 21.2792 18.893 21.2338C18.975 21.1884 19.0443 21.1235 19.0949 21.045L22.0989 16.2635H22.2409C23.5502 16.248 24.8335 16.626 25.9223 17.3478V28.5804H8.44413L8.46598 22.7689ZM40.6476 33.6113H2.05368C1.93084 33.6156 1.80834 33.5957 1.69331 33.5527C1.57828 33.5097 1.473 33.4444 1.38357 33.3607C1.29415 33.277 1.22236 33.1765 1.17237 33.065C1.12239 32.9536 1.0952 32.8334 1.09238 32.7114V30.608C1.09526 30.3654 1.19435 30.1338 1.36818 29.9633C1.542 29.7928 1.77653 29.6972 2.02091 29.6972H40.6476V33.6113ZM45.1592 38.653C45.1592 39.0987 44.9808 39.5262 44.6632 39.8413C44.3457 40.1565 43.915 40.3336 43.466 40.3336C43.0169 40.3336 42.5862 40.1565 42.2687 39.8413C41.9512 39.5262 41.7728 39.0987 41.7728 38.653V30.814H45.1592V38.653ZM57.5796 61.3569C57.6024 61.7019 57.5536 62.0478 57.4363 62.3733C57.319 62.6988 57.1356 62.9969 56.8975 63.2492C56.6595 63.5015 56.3718 63.7027 56.0522 63.8402C55.7327 63.9777 55.3881 64.0486 55.0398 64.0486C54.6915 64.0486 54.3469 63.9777 54.0274 63.8402C53.7078 63.7027 53.4201 63.5015 53.182 63.2492C52.944 62.9969 52.7606 62.6988 52.6433 62.3733C52.526 62.0478 52.4772 61.7019 52.5 61.3569V44.2694C52.5241 44.1854 52.5283 44.0971 52.5123 44.0113C52.4962 43.9255 52.4602 43.8446 52.4073 43.775C52.3543 43.7053 52.2858 43.6488 52.2071 43.6099C52.1284 43.5709 52.0417 43.5507 51.9538 43.5507C51.8659 43.5507 51.7792 43.5709 51.7005 43.6099C51.6218 43.6488 51.5533 43.7053 51.5003 43.775C51.4474 43.8446 51.4114 43.9255 51.3954 44.0113C51.3793 44.0971 51.3835 44.1854 51.4076 44.2694V61.3569C51.4304 61.7019 51.3817 62.0478 51.2643 62.3733C51.147 62.6988 50.9637 62.9969 50.7256 63.2492C50.4875 63.5015 50.1998 63.7027 49.8802 63.8402C49.5607 63.9777 49.2161 64.0486 48.8678 64.0486C48.5195 64.0486 48.175 63.9777 47.8554 63.8402C47.5359 63.7027 47.2481 63.5015 47.0101 63.2492C46.772 62.9969 46.5886 62.6988 46.4713 62.3733C46.354 62.0478 46.3052 61.7019 46.328 61.3569V37.5037H57.5796V61.3569ZM57.5796 36.4195H46.2953V35.3352H57.5796V36.4195ZM62.1021 38.6638C62.1021 39.1096 61.9237 39.537 61.6061 39.8522C61.2886 40.1674 60.8579 40.3444 60.4089 40.3444C59.9598 40.3444 59.5291 40.1674 59.2116 39.8522C58.8941 39.537 58.7157 39.1096 58.7157 38.6638V30.814H62.1021V38.6638ZM62.1021 29.6972H58.7157V26.8999C58.7157 26.8258 58.701 26.7525 58.6724 26.6841C58.6439 26.6157 58.602 26.5536 58.5493 26.5012C58.4965 26.4489 58.4339 26.4073 58.365 26.379C58.2961 26.3507 58.2222 26.3361 58.1476 26.3361C57.997 26.3361 57.8525 26.3955 57.746 26.5012C57.6394 26.6069 57.5796 26.7503 57.5796 26.8999V34.1859H46.2953V26.8999C46.2953 26.8258 46.2806 26.7525 46.252 26.6841C46.2235 26.6157 46.1816 26.5536 46.1289 26.5012C46.0761 26.4489 46.0135 26.4073 45.9446 26.379C45.8757 26.3507 45.8018 26.3361 45.7272 26.3361C45.5766 26.3361 45.4321 26.3955 45.3255 26.5012C45.219 26.6069 45.1592 26.7503 45.1592 26.8999V29.6972H41.7728V26.1626C41.7757 24.5733 42.413 23.0499 43.5453 21.9261C44.6776 20.8023 46.2124 20.1696 47.8137 20.1668H56.0612C57.6624 20.1696 59.1973 20.8023 60.3295 21.9261C61.4618 23.0499 62.0992 24.5733 62.1021 26.1626V29.6972ZM68.8748 32.7114C68.872 32.9521 68.7744 33.1821 68.6029 33.3523C68.4315 33.5225 68.1997 33.6193 67.9572 33.6221H63.2272V29.6972H67.9572C68.1997 29.7 68.4315 29.7969 68.6029 29.9671C68.7744 30.1373 68.872 30.3673 68.8748 30.608V32.7114Z" fill="#2C4E5E"/>
<path d="M51.9437 5.60548C50.8263 5.60333 49.7333 5.93027 48.8031 6.5449C47.8729 7.15954 47.1473 8.03425 46.7182 9.05833C46.2891 10.0824 46.1757 11.2098 46.3923 12.2979C46.609 13.386 47.146 14.3858 47.9354 15.1708C48.7248 15.9559 49.7311 16.4908 50.827 16.708C51.9228 16.9251 53.0589 16.8148 54.0915 16.3908C55.1241 15.9669 56.0068 15.2484 56.6279 14.3264C57.2489 13.4043 57.5804 12.3201 57.5804 11.211C57.5775 9.72706 56.9831 8.30458 55.9269 7.25427C54.8708 6.20397 53.4388 5.61121 51.9437 5.60548ZM51.9437 15.6889C50.7462 15.6889 49.5975 15.2175 48.7497 14.378C47.9019 13.5385 47.4241 12.3996 47.4212 11.211C47.4212 11.1026 47.4212 11.005 47.4212 10.8966C47.4829 10.0269 47.799 9.19408 48.3307 8.5002C48.8624 7.80632 49.5867 7.28157 50.4145 6.99035C51.2424 6.69912 52.1379 6.65408 52.9912 6.86075C53.8445 7.06742 54.6184 7.51682 55.2181 8.1538C55.8178 8.79078 56.2171 9.58765 56.367 10.4466C56.5169 11.3056 56.411 12.1894 56.0621 12.9894C55.7133 13.7895 55.1367 14.4711 54.4032 14.9506C53.6697 15.4302 52.8111 15.6867 51.9328 15.6889H51.9437Z" fill="#2C4E5E"/>
<path d="M33.3278 38.6641H12.3977C11.5054 38.6641 10.6496 39.0159 10.0187 39.6422C9.38768 40.2684 9.0332 41.1178 9.0332 42.0035V58.2671C9.0332 59.1527 9.38768 60.0021 10.0187 60.6284C10.6496 61.2547 11.5054 61.6065 12.3977 61.6065H33.3278C33.7697 61.6065 34.2072 61.5201 34.6154 61.3523C35.0236 61.1845 35.3945 60.9385 35.7069 60.6284C36.0194 60.3183 36.2672 59.9502 36.4363 59.545C36.6054 59.1399 36.6924 58.7056 36.6924 58.2671V42.0035C36.6924 41.565 36.6054 41.1307 36.4363 40.7256C36.2672 40.3204 36.0194 39.9523 35.7069 39.6422C35.3945 39.3321 35.0236 39.0861 34.6154 38.9183C34.2072 38.7504 33.7697 38.6641 33.3278 38.6641Z" fill="#F46C5F"/>
<path d="M30.9915 56.0768L28.2168 48.0643L28.2933 47.9993C28.8547 47.4951 29.282 46.8613 29.5374 46.1539C29.7927 45.4465 29.8682 44.6875 29.7571 43.9442C29.7255 43.6764 29.6072 43.426 29.4201 43.2305C29.233 43.035 28.9871 42.905 28.7193 42.86C27.9721 42.7496 27.209 42.8245 26.498 43.078C25.787 43.3315 25.1503 43.7557 24.6447 44.3129L24.5682 44.3887L16.5064 41.6456C16.298 41.5757 16.0739 41.565 15.8596 41.6148C15.6454 41.6647 15.4494 41.773 15.2939 41.9275L14.9443 42.2636C14.8261 42.383 14.7348 42.5259 14.6764 42.6829C14.6181 42.8399 14.594 43.0074 14.6057 43.1744C14.6167 43.3425 14.6644 43.5061 14.7455 43.654C14.8266 43.802 14.9392 43.9306 15.0754 44.031L21.1382 48.5522L19.2593 50.9592L14.8897 49.875C14.7169 49.8359 14.537 49.8392 14.3658 49.8845C14.1945 49.9299 14.0369 50.0159 13.9066 50.1352C13.8111 50.2299 13.7354 50.3423 13.6837 50.466C13.6321 50.5897 13.6055 50.7223 13.6055 50.8562C13.6055 50.9901 13.6321 51.1228 13.6837 51.2465C13.7354 51.3702 13.8111 51.4826 13.9066 51.5772L16.5829 54.2119L16.4518 54.3746C16.2637 54.6061 16.1695 54.899 16.1877 55.1958C16.2058 55.4927 16.3351 55.7721 16.5501 55.9792C16.6609 56.0961 16.7946 56.1891 16.9431 56.2525C17.0915 56.3159 17.2515 56.3484 17.4131 56.3479C17.6909 56.3424 17.9594 56.2473 18.1778 56.0768L18.3307 55.9467L21.0398 58.6356C21.2385 58.8203 21.4995 58.9247 21.7717 58.9284C21.9278 58.9281 22.0818 58.8926 22.222 58.8244C22.3622 58.7562 22.4849 58.6572 22.5807 58.5349C22.6766 58.4126 22.743 58.2702 22.7751 58.1186C22.8072 57.9669 22.804 57.81 22.7658 57.6598L21.6734 53.3229L24.033 51.4688L28.5882 57.4646C28.6894 57.5999 28.8189 57.7116 28.968 57.7921C29.117 57.8726 29.2819 57.92 29.4512 57.9309H29.4949C29.6514 57.9319 29.8064 57.9017 29.9509 57.8421C30.0954 57.7825 30.2264 57.6947 30.336 57.5839L30.6747 57.2478C30.8301 57.0999 30.9418 56.9126 30.9977 56.7062C31.0535 56.4998 31.0514 56.2821 30.9915 56.0768ZM15.7527 43.1852V43.1093L16.146 42.7624L23.7927 45.3646L21.8482 47.7065L15.7527 43.1852ZM14.9116 50.9592L18.4837 51.8483L17.293 53.3229L14.9116 50.9592ZM19.2811 55.2962L20.7449 54.136L21.6407 57.6381L19.2811 55.2962ZM17.4787 55.2962C17.4787 55.2962 17.4131 55.2962 17.3585 55.2962C17.3039 55.2962 17.3585 55.2094 17.3585 55.1769C23.9128 47.0018 25.2564 45.4188 25.464 45.2128C25.7951 44.8541 26.1965 44.5663 26.6435 44.3668C27.0905 44.1673 27.5738 44.0604 28.0639 44.0526C28.2309 44.0346 28.3994 44.0346 28.5664 44.0526C28.59 44.0545 28.6124 44.064 28.6302 44.0797C28.6479 44.0953 28.66 44.1163 28.6647 44.1394C28.7501 44.7022 28.6952 45.2772 28.5048 45.814C28.3144 46.3508 27.9942 46.8331 27.5723 47.2186C27.1463 47.5439 23.4868 50.4822 17.4787 55.2962ZM29.5714 56.8792H29.4949L24.9069 50.7641L27.3101 48.845L29.9319 56.4888L29.5714 56.8792Z" fill="#2C4E5E"/>
<path d="M26.0526 0.281933C26.0028 0.196277 25.9312 0.125138 25.8449 0.0756573C25.7586 0.0261764 25.6607 9.51045e-05 25.5611 3.17144e-05H11.0979C10.998 -0.00102986 10.8997 0.0245769 10.8132 0.0741714C10.7267 0.123766 10.6553 0.195524 10.6063 0.281933C10.5575 0.36799 10.5319 0.465079 10.5319 0.563835C10.5319 0.662591 10.5575 0.75968 10.6063 0.845736L12.1794 3.50212L10.4425 5.82238C10.3783 5.90793 10.3399 6.00977 10.3317 6.11611C10.3235 6.22244 10.3459 6.32889 10.3962 6.42312C10.4466 6.51734 10.5228 6.59546 10.616 6.64842C10.7093 6.70137 10.8158 6.72699 10.9231 6.7223H12.4525C12.4181 7.51598 12.546 8.30835 12.8283 9.05169C13.1106 9.79504 13.5416 10.474 14.0953 11.0476C14.649 11.6213 15.3139 12.0778 16.05 12.3897C16.7862 12.7015 17.5783 12.8623 18.3786 12.8623C19.179 12.8623 19.9711 12.7015 20.7072 12.3897C21.4434 12.0778 22.1083 11.6213 22.662 11.0476C23.2157 10.474 23.6466 9.79504 23.929 9.05169C24.2113 8.30835 24.3392 7.51598 24.3048 6.7223H25.0367C25.1409 6.72456 25.2436 6.69718 25.3327 6.64339C25.4217 6.58959 25.4934 6.51163 25.5392 6.41871C25.5875 6.32426 25.6079 6.21822 25.5983 6.11276C25.5886 6.00729 25.5492 5.90666 25.4846 5.82238L24.13 4.07676L26.0526 0.824052C26.0976 0.740666 26.1211 0.64756 26.1211 0.552993C26.1211 0.458425 26.0976 0.365319 26.0526 0.281933ZM23.2452 3.36117H13.4138L13.1079 2.79736L12.081 1.08427H24.5779L23.2452 3.36117ZM23.1469 6.7223C23.1779 7.3672 23.0767 8.01164 22.8494 8.61657C22.6221 9.22151 22.2735 9.77437 21.8246 10.2417C21.3757 10.7089 20.836 11.0809 20.238 11.3351C19.6401 11.5893 18.9964 11.7203 18.3459 11.7203C17.6954 11.7203 17.0517 11.5893 16.4537 11.3351C15.8557 11.0809 15.316 10.7089 14.8671 10.2417C14.4182 9.77437 14.0696 9.22151 13.8423 8.61657C13.615 8.01164 13.5138 7.3672 13.5448 6.7223H23.1469ZM12.0155 5.59469L12.8785 4.4454C12.9473 4.45549 13.0172 4.45549 13.086 4.4454H23.0267L23.8788 5.52964L12.0155 5.59469Z" fill="#2C4E5E"/>
<path d="M24.5788 1.1167L23.2461 3.36107L24.5788 1.1167Z" fill="#2C4E5E"/>
<path d="M32.6287 17.8138L30.4439 19.9823L29.1439 18.7029C29.0929 18.6487 29.0311 18.6055 28.9625 18.576C28.8939 18.5465 28.82 18.5313 28.7452 18.5313C28.6705 18.5313 28.5965 18.5465 28.5279 18.576C28.4593 18.6055 28.3976 18.6487 28.3465 18.7029C28.2418 18.8084 28.1831 18.9505 28.1831 19.0986C28.1831 19.2467 28.2418 19.3889 28.3465 19.4944L30.0397 21.1749C30.1479 21.2794 30.2929 21.3377 30.4439 21.3376C30.5915 21.3372 30.7329 21.2787 30.8371 21.1749L33.3824 18.6487C33.4679 18.5402 33.5105 18.4045 33.5021 18.267C33.4937 18.1295 33.4349 17.9998 33.3368 17.9024C33.2387 17.805 33.108 17.7467 32.9695 17.7383C32.831 17.73 32.6942 17.7723 32.585 17.8572L32.6287 17.8138ZM32.6287 21.1749L30.4439 23.3434L29.1439 22.064C29.1136 21.9739 29.0609 21.8929 28.9905 21.8284C28.9202 21.7639 28.8346 21.7182 28.7417 21.6953C28.6488 21.6725 28.5516 21.6733 28.4591 21.6977C28.3666 21.7222 28.2818 21.7694 28.2126 21.835C28.1435 21.9007 28.0921 21.9826 28.0633 22.0732C28.0346 22.1638 28.0294 22.2602 28.0482 22.3533C28.067 22.4465 28.1092 22.5334 28.1709 22.606C28.2326 22.6787 28.3118 22.7346 28.4011 22.7688L30.0943 24.4493C30.2025 24.5538 30.3476 24.6121 30.4985 24.612C30.6461 24.6116 30.7876 24.5531 30.8918 24.4493L33.437 21.9231C33.5226 21.8146 33.5651 21.6788 33.5567 21.5414C33.5483 21.4039 33.4895 21.2742 33.3914 21.1768C33.2933 21.0794 33.1626 21.0211 33.0241 21.0127C32.8856 21.0044 32.7488 21.0467 32.6396 21.1316L32.6287 21.1749Z" fill="#F46C5F"/>
</g>
<defs>
<clipPath id="clip0_58_430">
<rect width="70" height="65" fill="white"/>
</clipPath>
</defs>
</svg>
