<?xml version="1.0" encoding="utf-8"?>
<!-- Generator: Adobe Illustrator 26.0.1, SVG Export Plug-In . SVG Version: 6.00 Build 0)  -->
<svg version="1.1" id="SvgjsSvg1001" xmlns:svgjs="http://svgjs.com/svgjs"
	 xmlns="http://www.w3.org/2000/svg" xmlns:xlink="http://www.w3.org/1999/xlink" x="0px" y="0px" viewBox="0 0 256 256"
	 style="enable-background:new 0 0 256 256;" xml:space="preserve">
<style type="text/css">
	.st0{fill:#274E5E;}
	.st1{fill:#FC6E62;}
	.st2{fill:none;}
</style>
<g>
	<circle class="st0" cx="68" cy="199.9" r="8"/>
	<circle cx="188" cy="199.9" r="8"/>
	<path class="st0" d="M104,104L104,104l-27,0c-1.5,0-2.9,0.8-3.6,2.2l-14.2,28c-0.6,1.2-0.6,2.7,0.2,3.9c0.7,1.2,2,1.9,3.4,1.9H104
		c2.2,0,4-1.8,4-4v-28C108,105.8,106.2,104,104,104z M100,131.9H69.3l10.2-20H100V131.9z M136,147.9h-16c-2.2,0-4,1.8-4,4s1.8,4,4,4
		h16c2.2,0,4-1.8,4-4S138.2,147.9,136,147.9z"/>
	<path class="st0" d="M104,104L104,104l-27,0c-1.5,0-2.9,0.8-3.6,2.2l-14.2,28c-0.6,1.2-0.6,2.7,0.2,3.9c0.7,1.2,2,1.9,3.4,1.9H104
		c2.2,0,4-1.8,4-4v-28C108,105.8,106.2,104,104,104z M100,131.9H69.3l10.2-20H100V131.9z"/>
	<path class="st0" d="M140,151.9c0,2.2-1.8,4-4,4h-16c-2.2,0-4-1.8-4-4s1.8-4,4-4h16C138.2,147.9,140,149.7,140,151.9z"/>
	<path class="st0" d="M68,191.9c-4.4,0-8,3.6-8,8s3.6,8,8,8c4.4,0,8-3.6,8-8S72.4,191.9,68,191.9z M188,191.9c-4.4,0-8,3.6-8,8
		s3.6,8,8,8c4.4,0,8-3.6,8-8S192.4,191.9,188,191.9z M188,191.9c-4.4,0-8,3.6-8,8s3.6,8,8,8c4.4,0,8-3.6,8-8S192.4,191.9,188,191.9z
		 M68,191.9c-4.4,0-8,3.6-8,8s3.6,8,8,8c4.4,0,8-3.6,8-8S72.4,191.9,68,191.9z M68,191.9c-4.4,0-8,3.6-8,8s3.6,8,8,8
		c4.4,0,8-3.6,8-8S72.4,191.9,68,191.9z M145.3,131.9H124v-20h8.5l-3.3-8H120c-2.2,0-4,1.8-4,4v28c0,2.2,1.8,4,4,4h33L145.3,131.9z
		 M188,191.9c-4.4,0-8,3.6-8,8s3.6,8,8,8c4.4,0,8-3.6,8-8S192.4,191.9,188,191.9z M184.2,62.2c-17,0-30.8,13.8-30.8,30.9
		c0,17,13.8,30.8,30.8,30.8S215,110.1,215,93.1S201.2,62.2,184.2,62.2z M184.2,115.9c-12.6,0-22.8-10.2-22.8-22.8
		c0-12.6,10.2-22.9,22.8-22.9S207,80.5,207,93.1C207,105.7,196.8,115.9,184.2,115.9z M192.2,83l-11.7,11.7l-4.6-4.6
		c-1.5-1.6-4.1-1.6-5.6,0c-1.6,1.6-1.6,4.1,0,5.6l7.5,7.5h-0.1c0.8,0.8,1.8,1.2,2.8,1.2s2.1-0.4,2.8-1.2l14.5-14.5
		c1.6-1.6,1.6-4.1,0-5.6C196.3,81.5,193.8,81.5,192.2,83z M188,191.9c-4.4,0-8,3.6-8,8s3.6,8,8,8c4.4,0,8-3.6,8-8
		S192.4,191.9,188,191.9z M68,191.9c-4.4,0-8,3.6-8,8s3.6,8,8,8c4.4,0,8-3.6,8-8S72.4,191.9,68,191.9z M234.5,142.6l-18-3.9
		l-8.5,7.1c0.2-0.1,0.4-0.3,0.6-0.4c0.1,0,0.1-0.1,0.2-0.2l24,5.2h0.1c1.9,0.4,3.2,2,3.2,3.9v9.5h-12c-2.2,0-4,1.8-4,4v16
		c0,2.2,1.8,4,4,4h12v4c0,2.2-1.8,4-4,4h-16.3c-2-13.6-13.6-24-27.7-24c-14.1,0-25.7,10.4-27.7,24H95.7c-2-13.6-13.6-24-27.7-24
		c-14.1,0-25.7,10.4-27.7,24H24c-2.2,0-4-1.8-4-4v-12h12c2.2,0,4-1.8,4-4v-16c0-2.2-1.8-4-4-4H20v-12c0-2.2,1.8-4,4-4h20.8
		c1.5,0,2.9-0.8,3.6-2.2l20.2-39.6c0.7-1.4,2.1-2.2,3.6-2.2h54.6l-1.5-8H72.1c-4.5,0-8.6,2.5-10.7,6.6l-19,37.4H24
		c-6.6,0-12,5.4-12,12v48c0,6.6,5.4,12,12,12h16.3c2,13.6,13.6,24,27.7,24c14.1,0,25.7-10.4,27.7-24h64.6c2,13.6,13.6,24,27.7,24
		c14.1,0,25.7-10.4,27.7-24H232c6.6,0,12-5.4,12-12v-37.5C244,148.7,240.1,143.9,234.5,142.6z M20,163.9h8v8h-8V163.9z M68,219.9
		c-11,0-20-9-20-20c0-11,9-20,20-20c11,0,20,9,20,20C88,211,79,219.9,68,219.9z M188,219.9c-11,0-20-9-20-20c0-11,9-20,20-20
		c11,0,20,9,20,20C208,211,199,219.9,188,219.9z M236,179.9h-8v-8h8V179.9z M188,191.9c-4.4,0-8,3.6-8,8s3.6,8,8,8c4.4,0,8-3.6,8-8
		S192.4,191.9,188,191.9z M116,107.9v28c0,2.2,1.8,4,4,4h33l-7.7-8H124v-20h8.5l-3.3-8H120C117.8,103.9,116,105.7,116,107.9z
		 M68,191.9c-4.4,0-8,3.6-8,8s3.6,8,8,8c4.4,0,8-3.6,8-8S72.4,191.9,68,191.9z M68,191.9c-4.4,0-8,3.6-8,8s3.6,8,8,8
		c4.4,0,8-3.6,8-8S72.4,191.9,68,191.9z M188,191.9c-4.4,0-8,3.6-8,8s3.6,8,8,8c4.4,0,8-3.6,8-8S192.4,191.9,188,191.9z M188,191.9
		c-4.4,0-8,3.6-8,8s3.6,8,8,8c4.4,0,8-3.6,8-8S192.4,191.9,188,191.9z M68,191.9c-4.4,0-8,3.6-8,8s3.6,8,8,8c4.4,0,8-3.6,8-8
		S72.4,191.9,68,191.9z M68,191.9c-4.4,0-8,3.6-8,8s3.6,8,8,8c4.4,0,8-3.6,8-8S72.4,191.9,68,191.9z M68,191.9c-4.4,0-8,3.6-8,8
		s3.6,8,8,8c4.4,0,8-3.6,8-8S72.4,191.9,68,191.9z"/>
	<path class="st1" d="M239.9,42.7c-12,0-36.8-3-53.6-14c-1.3-0.9-3.1-0.9-4.4,0c-16.7,11-41.5,14-53.6,14c-2.2,0-4.1,1.8-4.1,4v28.3
		c0,4.4,0.4,8.6,1,12.8h-0.1l1.5,8h0.2c0.7,2.7,1.5,5.4,2.4,8h-0.1l3.3,8l0,0.1c3.4,7.2,7.6,13.9,12.8,19.9l7.7,8
		c8.5,7.7,18.5,13.9,29.8,17.9c0.8,0.3,1.8,0.3,2.6,0c8-2.9,15.6-6.9,22.5-11.9l0,0l8.5-7.1c17.2-16.2,27.5-39.1,27.5-63.7V46.8
		C244,44.6,242.1,42.7,239.9,42.7z M184.2,123.9c-17,0-30.8-13.8-30.8-30.8c0-17,13.8-30.9,30.8-30.9S215,76.1,215,93.1
		S201.2,123.9,184.2,123.9z"/>
	<path d="M197.8,83c1.6,1.6,1.6,4.1,0,5.6l-14.5,14.5c-0.8,0.7-1.8,1.2-2.8,1.2s-2.1-0.4-2.8-1.2h0.1l-7.5-7.5
		c-1.6-1.6-1.6-4.1,0-5.6c1.6-1.6,4.1-1.6,5.6,0l4.6,4.6L192.2,83C193.8,81.5,196.3,81.5,197.8,83z"/>
	<path d="M184.2,62.2c-17,0-30.8,13.8-30.8,30.9c0,17,13.8,30.8,30.8,30.8S215,110.1,215,93.1S201.2,62.2,184.2,62.2z M184.2,115.9
		c-12.6,0-22.8-10.2-22.8-22.8c0-12.6,10.2-22.9,22.8-22.9S207,80.5,207,93.1C207,105.7,196.8,115.9,184.2,115.9z"/>
	<circle class="st0" cx="68" cy="199.9" r="8"/>
	<circle class="st0" cx="188" cy="199.9" r="8"/>
	<path class="st0" d="M104,104L104,104l-27,0c-1.5,0-2.9,0.8-3.6,2.2l-14.2,28c-0.6,1.2-0.6,2.7,0.2,3.9c0.7,1.2,2,1.9,3.4,1.9H104
		c2.2,0,4-1.8,4-4v-28C108,105.8,106.2,104,104,104z M100,131.9H69.3l10.2-20H100V131.9z"/>
	<path class="st0" d="M140,151.9c0,2.2-1.8,4-4,4h-16c-2.2,0-4-1.8-4-4s1.8-4,4-4h16C138.2,147.9,140,149.7,140,151.9z"/>
	<path class="st0" d="M184.2,62.2c-17,0-30.8,13.8-30.8,30.9c0,17,13.8,30.8,30.8,30.8S215,110.1,215,93.1S201.2,62.2,184.2,62.2z
		 M184.2,115.9c-12.6,0-22.8-10.2-22.8-22.8c0-12.6,10.2-22.9,22.8-22.9S207,80.5,207,93.1C207,105.7,196.8,115.9,184.2,115.9z"/>
	<path class="st0" d="M197.8,88.6l-14.5,14.5c-0.8,0.7-1.8,1.2-2.8,1.2s-2.1-0.4-2.8-1.2h0.1l-7.5-7.5c-1.6-1.6-1.6-4.1,0-5.6
		c1.6-1.6,4.1-1.6,5.6,0l4.6,4.6L192.2,83c1.6-1.6,4.1-1.6,5.6,0C199.4,84.6,199.4,87.1,197.8,88.6z"/>
	<line class="st2" x1="126.8" y1="96.3" x2="126.7" y2="95.9"/>
	<line class="st2" x1="125.2" y1="87.9" x2="125.1" y2="87.6"/>
	<line class="st2" x1="132.7" y1="112.4" x2="132.6" y2="112"/>
	<line class="st2" x1="129.2" y1="103.9" x2="129.1" y2="103.9"/>
</g>
</svg>
