<svg xmlns="http://www.w3.org/2000/svg" viewBox="0 0 204.52 149.87"><defs><style>.cls-2{fill:#274e5e}</style></defs><g id="Layer_2" data-name="Layer 2"><g id="Layer_1-2" data-name="Layer 1"><path d="M180.3 134.6a12.33 12.33 0 01-15.38 8.21L30.65 101.95a12.33 12.33 0 01-8.2-15.38L46.13 8.74A12.32 12.32 0 0161.52.54L195.78 41.4A12.32 12.32 0 01204 56.78z" fill="#fc6e62"/><path class="cls-2" d="M20 65.87h31v4H20zm0 20h48v4H20zm0 19h117v5H20zm0 20h18v5H20zm33 0h18v5H53zm33 0h18v5H86zm48.93-62.56a11.87 11.87 0 00-6 1.67l-.53.31-.53-.31a12.06 12.06 0 00-6.13-1.67A12.18 12.18 0 10127.83 85l.53-.31.53.31a11.88 11.88 0 006 1.67 12.18 12.18 0 000-24.35zm-10.62 18l.69 1.19-1.27.36a7.2 7.2 0 01-2 .28 7.67 7.67 0 010-15.33 8.74 8.74 0 011.93.27l1.36.31-.67 1.22a11.78 11.78 0 000 11.73zm10.62 1.8a7.67 7.67 0 117.67-7.67 7.68 7.68 0 01-7.67 7.71z"/><path class="cls-2" d="M163.61 139.68V59.89l-.16-6.89a8.85 8.85 0 00-8.67-7.2H9.11A9.14 9.14 0 000 54.64v85.95a9.66 9.66 0 009.35 9.29h145.43a9 9 0 007.39-4.21 19.79 19.79 0 001.44-5.99zm-4.61 2.19a4 4 0 01-4.23 3H9.35A4.29 4.29 0 015 140.59V54.64c0-2.4 1.94-4.77 4.35-4.77h145.43c2.4 0 4.22 2.36 4.22 4.77z"/></g></g></svg>