<svg xmlns="http://www.w3.org/2000/svg" viewBox="0 0 178.39 190.55"><defs><style>.cls-3{fill:#274e5e;stroke:#fff;stroke-miterlimit:10;stroke-width:2.16px}</style></defs><g style="isolation:isolate"><g id="Layer_2" data-name="Layer 2"><g id="Layer_1-2" data-name="Layer 1"><g style="mix-blend-mode:multiply"><path class="cls-3" d="M86.16 52.73a33.42 33.42 0 10-59.85 20.4 9.06 9.06 0 00-.92 3.87v18.4a19.64 19.64 0 00-16.6-9.25 7.7 7.7 0 00-6.41 12l3.13 4.69a13.58 13.58 0 012.16 5.82l2.15 17.23a15.16 15.16 0 002.92 7.23l6.57 8.76v5.07h-6.08v42.54h66.85v-42.56H74v-5.36l4.48-9a15.32 15.32 0 001.6-6.79V77a9.09 9.09 0 00-.92-3.92 33.22 33.22 0 007-20.35zM52.74 25.39a27.35 27.35 0 11-27.35 27.34 27.38 27.38 0 0127.35-27.34zM74 153v6.08H19.31V153zm-54.7 30.38v-18.22H74v18.23zM73 129.9l-5.12 10.23v6.79H25.39v-7.09l-7.79-10.37a9.12 9.12 0 01-1.75-4.34L13.7 107.9a19.68 19.68 0 00-3.14-8.44l-3.13-4.7a1.63 1.63 0 011.35-2.53A13.55 13.55 0 0122 103.1l3.79 19 1.86.47a13 13 0 019.86 12.62v5.7h6.08v-5.7a19 19 0 00-12.13-17.79V78.5a33.48 33.48 0 006.08 4v31h6.08V84.86A33.42 33.42 0 0049.7 86v27.5h6.08V86a32.8 32.8 0 006.08-1.14v28.64h6.08v-31a33.58 33.58 0 006.08-4v47.33A9.16 9.16 0 0173 129.9z"/><path class="cls-3" d="M176 92.41l-3.13-4.69a13.61 13.61 0 01-2.16-5.82l-2.15-17.23a15.15 15.15 0 00-2.92-7.23l-6.57-8.76v-5.06h6.07V1.08H98.31v42.54h6.08V49l-4.47 8.95a15.29 15.29 0 00-1.6 6.79v48.76a9.13 9.13 0 00.18 1.78 39.5 39.5 0 1054.33 0 9.06 9.06 0 00.18-1.78V95.14a19.64 19.64 0 0016.6 9.25 7.7 7.7 0 006.41-12zM159.08 7.16v30.38h-54.7V25.39h24.32v-6.08h-24.31V7.16zm0 136.73a33.42 33.42 0 11-33.43-33.42 33.46 33.46 0 0133.43 33.42zm10.53-45.58a13.55 13.55 0 01-13.25-10.86l-3.79-19-1.87-.45a13 13 0 01-9.85-12.62V49.7h-6.08v5.7a19 19 0 0012.15 17.75v37.51a39.4 39.4 0 00-6.08-3.22V77h-6.08v28.45a39.45 39.45 0 00-6.08-1V77h-6.08v27.5a38.47 38.47 0 00-6.08 1V77h-6.08v30.39a39.7 39.7 0 00-6.08 3.22V64.72a9.19 9.19 0 011-4.08l5.12-10.23v-6.79H153v7.09l7.79 10.38a9.1 9.1 0 011.75 4.34l2.15 17.22a19.69 19.69 0 003.14 8.44l3.17 4.69a1.63 1.63 0 01-1.35 2.53z"/><path class="cls-3" d="M105.25 160l36.46-36.46 4.3 4.3-36.46 36.46zm32.56-13.07a9.12 9.12 0 109.12 9.11 9.13 9.13 0 00-9.12-9.11zm0 12.15a3 3 0 113-3 3 3 0 01-3 3zm-24.31-18.23a9.12 9.12 0 10-9.12-9.12 9.13 9.13 0 009.12 9.12zm0-12.15a3 3 0 11-3 3 3 3 0 013-3zm30.39-97.23a9.12 9.12 0 10-9.11-9.12 9.13 9.13 0 009.11 9.12zm0-12.16a3 3 0 11-3 3 3 3 0 013-3z"/></g><circle cx="52.8" cy="52" r="34.83" fill="#fc6e62"/><path d="M55.41 39.12l-.72-.26v-6.31h-3.91v6.08H44.7v8a8 8 0 008 8 4.12 4.12 0 014.12 4.12v4.12h-4.08a4.13 4.13 0 01-4-3h-4a8.06 8.06 0 005.29 6.46l.72.26v6.32h3.92v-6.06h6.08v-8a8 8 0 00-8-8 4.12 4.12 0 01-4.12-4.12v-4.19h4.12a4.13 4.13 0 014 3h4a8.05 8.05 0 00-5.34-6.42z" fill="#274e5e"/></g></g></g></svg>