<svg xmlns="http://www.w3.org/2000/svg" viewBox="0 0 171.31 171.76"><defs><style>.cls-4{fill:#274e5e;stroke:#fff;stroke-miterlimit:10;stroke-width:2.1px}</style></defs><g style="isolation:isolate"><g id="Layer_2" data-name="Layer 2"><g id="Layer_1-2" data-name="Layer 1"><path d="M66.06.87h-55C5.39.87 0 5.73 0 11.39v55c0 5.67 5.39 10.48 11.06 10.48h55c5.67 0 9.94-4.81 9.94-10.48v-55C76 5.73 71.73.87 66.06.87z" fill="#fc6e62"/><g id="_Group_" data-name="&lt;Group&gt;" style="mix-blend-mode:multiply"><g id="_Group_2" data-name="&lt;Group&gt;"><path class="cls-4" d="M159.05 91a11.13 11.13 0 00-5.34 1.35 11.2 11.2 0 00-18.35-3.91 11.18 11.18 0 00-12.47-2.28v-9.57h27.81A10.28 10.28 0 00161 66.33v-55a10.28 10.28 0 00-10.29-10.28h-55a10.28 10.28 0 00-10.28 10.28v55A10.28 10.28 0 0095.7 76.6h4.78v28.11l-11.42 16.74a19.39 19.39 0 00-1.53 19.08l13.26 28.27a3.31 3.31 0 106-2.81l-13.26-28.27a12.73 12.73 0 011-12.54l5.94-8.71v6.26a3.31 3.31 0 106.63 0V62.9a4.58 4.58 0 019.16 0v48.94a3.31 3.31 0 106.63 0V96.39a4.58 4.58 0 119.16 0v15.45a3.31 3.31 0 106.63 0V96.39a4.58 4.58 0 119.16 0v15.45a3.31 3.31 0 106.63 0v-9.64a4.58 4.58 0 019.16 0v27.7a72.55 72.55 0 01-3.33 21.73l-4.63 14.77a3.31 3.31 0 106.32 2l4.63-14.77a79.16 79.16 0 003.63-23.71V102.2a11.22 11.22 0 00-11.2-11.2zm-47.36-39.31a11.22 11.22 0 00-11.21 11.21V70H95.7a3.65 3.65 0 01-3.64-3.64v-55a3.65 3.65 0 013.64-3.68h55a3.65 3.65 0 013.65 3.64v55a3.65 3.65 0 01-3.64 3.68H122.9v-7.1a11.22 11.22 0 00-11.21-11.21z"/><path id="_Path_" data-name="&lt;Path&gt;" class="cls-4" d="M139 52.81a3.31 3.31 0 000-4.69l-9.29-9.29 9.29-9.3a3.31 3.31 0 00-4.69-4.69l-9.31 9.3-9.29-9.29a3.31 3.31 0 00-4.71 4.68l9.29 9.29-9.29 9.3a3.31 3.31 0 104.69 4.69l9.3-9.29 9.29 9.29a3.31 3.31 0 004.69 0z"/></g></g><path id="_Path_2" data-name="&lt;Path&gt;" d="M50.26 27L33.75 43.54l-6.93-6.93a3.31 3.31 0 10-4.69 4.69l9.27 9.28a3.31 3.31 0 004.69 0L55 31.72A3.31 3.31 0 0050.26 27z" fill="#274e5e"/></g></g></g></svg>