<svg xmlns="http://www.w3.org/2000/svg" viewBox="0 0 185.53 169.46"><defs><style>.cls-3{fill:#274e5e;stroke:#fff;stroke-miterlimit:10;stroke-width:2.29px}</style></defs><g style="isolation:isolate"><g id="Layer_2" data-name="Layer 2"><g id="Layer_1-2" data-name="Layer 1"><g style="mix-blend-mode:multiply"><path class="cls-3" d="M146.82 129.7a3.58 3.58 0 00-5 .9 40.35 40.35 0 01-3.68 4.55 43.5 43.5 0 01-3.5 3.29 3.58 3.58 0 004.64 5.45 50.42 50.42 0 004.1-3.86 47.72 47.72 0 004.32-5.36 3.58 3.58 0 00-.88-4.97z"/><path class="cls-3" d="M173.69 1.15H11.84A10.7 10.7 0 001.15 11.84v100.29a10.7 10.7 0 0010.69 10.69H87.2A59.81 59.81 0 00103.94 152c9.22 9 19.78 13.72 23.86 13.72S142.44 161 151.66 152a59.84 59.84 0 0016.73-29.22h5.29a10.7 10.7 0 0010.69-10.69V11.84a10.7 10.7 0 00-10.68-10.69zm-10.78 107a52.83 52.83 0 01-16 38.54c-8.66 8.51-17.55 11.82-19.1 11.92-1.56-.1-10.44-3.41-19.1-11.92a52.83 52.83 0 01-16-38.54V90.53a160.09 160.09 0 0035.09-14.85 165.84 165.84 0 0035.11 14.85zm14.32 4a3.54 3.54 0 01-3.54 3.53h-4a65.78 65.78 0 00.43-7.51V87.82a3.58 3.58 0 00-2.64-3.45 157.85 157.85 0 01-37.82-15.9 3.58 3.58 0 00-3.62 0 153.54 153.54 0 01-37.82 15.9 3.58 3.58 0 00-2.64 3.45v20.34a66.22 66.22 0 00.42 7.51H11.84a3.54 3.54 0 01-3.53-3.53V51.25h168.91zm0-68H8.3V29.78h168.92zm0-21.47H8.3V11.84a3.54 3.54 0 013.54-3.54h161.85a3.54 3.54 0 013.54 3.53z"/><path class="cls-3" d="M44.09 76.3a16.12 16.12 0 00-6.26 1.27 16.1 16.1 0 100 29.67 16.1 16.1 0 106.26-30.94zm-12.52 25.05a8.95 8.95 0 118.95-8.95 9 9 0 01-8.95 8.95zm13.41 0a16.06 16.06 0 000-17.8 8.95 8.95 0 010 17.8zM62.4 60.2H19a3.58 3.58 0 100 7.16h43.4a3.58 3.58 0 100-7.16z"/></g><path d="M170.34 81.67a169.63 169.63 0 01-40.68-17.15 3.77 3.77 0 00-3.85 0 166.3 166.3 0 01-40.88 17.15A4 4 0 0082 85.39v21.93a70.81 70.81 0 00.58 8.1l1.4 7.72A64.54 64.54 0 00102 154.66c9.94 9.66 21.35 14.8 25.75 14.8s15.8-5.14 25.74-14.8a64.51 64.51 0 0018.05-31.51l1.14-7.72a72.46 72.46 0 00.26-8.1V85.39a3.68 3.68 0 00-2.6-3.72z" fill="#fc6e62"/><path d="M147.34 102.46a2.41 2.41 0 00-.71-1.72 2.49 2.49 0 00-3.44 0l-19.95 19.95-10.84-10.84a2.43 2.43 0 10-3.44 3.44l12.56 12.56a2.49 2.49 0 003.44 0l21.67-21.67a2.41 2.41 0 00.71-1.72z" fill="#274e5e"/></g></g></g></svg>