<svg xmlns="http://www.w3.org/2000/svg" viewBox="0 0 29.56 29.56"><defs><style>.cls-1{fill:#a2a09c;}.cls-2{fill:#f46c5f;}</style></defs><g id="Layer_2" data-name="Layer 2"><g id="Layer_1-2" data-name="Layer 1"><polygon class="cls-1" points="29.56 19.71 29.56 19.71 29.56 19.71 29.56 19.71"/><path class="cls-1" d="M10.45,14.42a.59.59,0,0,0-.18.6l.25,1a.61.61,0,0,0,.45.45l2.2.55a2,2,0,0,1,.85.44.62.62,0,0,0,.79-.95,3.5,3.5,0,0,0-1.34-.69l-1.85-.46-.07-.31a4.17,4.17,0,0,0,1-1.91,1.12,1.12,0,0,0,.61-.88l.14-1.07a1.15,1.15,0,0,0-.28-.9,1,1,0,0,0-.22-.19l0-.66.11-.11A1.57,1.57,0,0,0,13,7.24a2.58,2.58,0,0,0-2.32-1.08,3.88,3.88,0,0,0-2.14.54C6,6.79,5.68,8.15,5.68,9.19a8.8,8.8,0,0,0,.07.9,1,1,0,0,0-.25.21,1.15,1.15,0,0,0-.28.9l.13,1.07a1.15,1.15,0,0,0,.69.9A4,4,0,0,0,7,15l-.09.36L5,15.83a3.37,3.37,0,0,0-2.55,3.26.62.62,0,0,0,.62.62h8.69a.62.62,0,0,0,.62-.62.61.61,0,0,0-.62-.61h-8A2.1,2.1,0,0,1,5.31,17l2.21-.55A.61.61,0,0,0,8,16L8.23,15a.63.63,0,0,0-.18-.6,2.77,2.77,0,0,1-.85-1.76.57.57,0,0,0-.62-.5l-.16-1a.62.62,0,0,0,.46-.21A.61.61,0,0,0,7,10.45c0-.38-.12-1-.12-1.27,0-.63,0-1.24,1.8-1.25a.55.55,0,0,0,.35-.12,2.65,2.65,0,0,1,1.59-.42c.94,0,1.2.39,1.29.53.25.38.15.49.08.56l-.27.27a.62.62,0,0,0-.18.41l-.06,1.34a.48.48,0,0,0,.53.55l-.08,1a.62.62,0,0,0-.62.57h0A2.8,2.8,0,0,1,10.45,14.42Z"/><path class="cls-1" d="M26.48,9.85a.61.61,0,0,0,.62-.61.62.62,0,0,0-.62-.62H24a.62.62,0,0,0-.62.62.61.61,0,0,0,.62.61Z"/><path class="cls-2" d="M28.63,18.83a2.91,2.91,0,0,0-1.29.43A6.38,6.38,0,0,0,25,16.51a10.62,10.62,0,0,0-3.48-.5,10.74,10.74,0,0,0-3.49.5,6.3,6.3,0,0,0-2.29,2.75,3,3,0,0,0-1.3-.43.94.94,0,0,0-.6.19.84.84,0,0,0-.33.69,2.41,2.41,0,0,0,.83,1.7.94.94,0,0,0,.22.12A7.68,7.68,0,0,0,14.17,24a7,7,0,0,0,.61,3.29v1A1.22,1.22,0,0,0,16,29.56h1.23a1.22,1.22,0,0,0,1.24-1.23v-.42a12.92,12.92,0,0,0,3.08.42,13.08,13.08,0,0,0,3.08-.42v.42a1.22,1.22,0,0,0,1.23,1.23H27.1a1.22,1.22,0,0,0,1.23-1.23v-1A7,7,0,0,0,29,24a7.7,7.7,0,0,0-.44-2.49.68.68,0,0,0,.22-.12,2.41,2.41,0,0,0,.83-1.7A.86.86,0,0,0,28.63,18.83Zm-10-1.22a10.56,10.56,0,0,1,2.94-.37,10.46,10.46,0,0,1,2.93.37,5.74,5.74,0,0,1,2,2.8c-1.15.16-3.89.53-4.91.53s-3.77-.37-4.92-.53A5.74,5.74,0,0,1,18.62,17.61Zm-3.48,2.82a1.13,1.13,0,0,1-.17-.21l.23.13Zm2.1,7.9H16v-.62h1.23Zm9.86,0H25.87v-.62H27.1Zm.28-1.85H25.25a.63.63,0,0,0-.19,0,12.63,12.63,0,0,1-3.5.59,13.17,13.17,0,0,1-3.5-.58H18a.5.5,0,0,0-.13,0H15.73A7,7,0,0,1,15.4,24c0-.2,0-.4,0-.61.83,0,1.81.3,1.81.61a.62.62,0,0,0,1.24,0c0-1.51-2-1.78-2.81-1.83a5.33,5.33,0,0,1,.25-.64h0c.18,0,4.24.62,5.64.62s5.46-.59,5.63-.62h0a5.33,5.33,0,0,1,.25.64c-.77,0-2.8.33-2.8,1.83a.61.61,0,0,0,.61.62.62.62,0,0,0,.62-.62c0-.32,1-.59,1.81-.61,0,.21,0,.41,0,.61A7,7,0,0,1,27.38,26.48ZM28,20.43h0l-.06-.08.23-.13A1.39,1.39,0,0,1,28,20.43Z"/><path class="cls-2" d="M22.79,23.4H20.32a.62.62,0,0,0,0,1.24h2.47a.62.62,0,0,0,0-1.24Z"/><path class="cls-1" d="M26.48,0H3.08A3.08,3.08,0,0,0,0,3.08v16a3.08,3.08,0,0,0,3.08,3.08h9.11a.61.61,0,0,0,.62-.61.62.62,0,0,0-.62-.62H3.08a1.85,1.85,0,0,1-1.85-1.85V4.93h27.1V17a.62.62,0,0,0,.62.62.61.61,0,0,0,.61-.62V3.08A3.08,3.08,0,0,0,26.48,0Zm1.85,3.7H1.23V3.08A1.85,1.85,0,0,1,3.08,1.23h23.4a1.85,1.85,0,0,1,1.85,1.85Z"/><path class="cls-1" d="M17.86,9.85h3.7a.61.61,0,0,0,.61-.61.61.61,0,0,0-.61-.62h-3.7a.62.62,0,0,0-.62.62A.61.61,0,0,0,17.86,9.85Z"/><path class="cls-1" d="M17.86,13.55h8.62a.62.62,0,0,0,.62-.62.61.61,0,0,0-.62-.61H17.86a.61.61,0,0,0-.62.61A.62.62,0,0,0,17.86,13.55Z"/></g></g></svg>