<svg xmlns="http://www.w3.org/2000/svg" viewBox="0 0 29.95 29.17"><defs><style>.cls-1{fill:#f7f5f7;}.cls-2{fill:#dddbdd;}.cls-3{fill:#b3d9eb;}.cls-4{fill:#84b4c9;}.cls-5{fill:#4c6b79;}</style></defs><g id="Layer_2" data-name="Layer 2"><g id="Layer_1-2" data-name="Layer 1"><g id="SvgjsG1008"><path class="cls-1" d="M.39,8.39V26.85a2,2,0,0,0,1.93,1.94H27.63a2,2,0,0,0,1.93-1.94V8.39Z"/><path class="cls-2" d="M12.91,26.33h5.16a.51.51,0,0,0,.52-.51V22.15l.88-.88a.51.51,0,0,0,0-.72.5.5,0,0,0-.73,0l-.15.13v0a.51.51,0,0,0-.52-.51H12.91a.51.51,0,0,0-.52.51v5.17A.51.51,0,0,0,12.91,26.33Zm4.65-1H13.43v-2l1.65,1.65a.48.48,0,0,0,.72,0l1.73-1.73V25.3Zm0-4.13v.57l-2.1,2.09L14,22.36a.49.49,0,0,0-.56-.1V21.17Z"/><path class="cls-3" d="M15,23.86,12.26,21.2v4.23h5.43V21.12Z"/><path class="cls-3" d="M12.26,20v2.74l.83-.37L15,24.22l2.74-2.74V20Zm11.26,3.85-2.74-2.72v4.29h5.43V21.17Z"/><path class="cls-3" d="M20.78,20V22.9l.88-.52,1.86,1.84,2.69-2.69V20Z"/><path class="cls-1" d="M12.91,12.39H17v4.13H12.91Zm8.52,0h4.13v4.13H21.43Zm-17,8.26H8.52v4.14H4.39Zm0-8.26H8.52v4.13H4.39Z"/><path class="cls-2" d="M12.91,18.07h5.16a.51.51,0,0,0,.52-.51V12.39a.51.51,0,0,0-.52-.51H12.91a.51.51,0,0,0-.52.51v5.17A.51.51,0,0,0,12.91,18.07Zm.52-5.16h4.13V17H13.43Zm-9,5.16H9.55a.51.51,0,0,0,.52-.51V12.39a.51.51,0,0,0-.52-.51H4.39a.52.52,0,0,0-.52.51v5.17A.52.52,0,0,0,4.39,18.07Zm.52-5.16H9V17H4.91Zm16.52,5.16h5.16a.51.51,0,0,0,.52-.51V12.39a.51.51,0,0,0-.52-.51H21.43a.51.51,0,0,0-.52.51v5.17A.51.51,0,0,0,21.43,18.07ZM22,12.91h4.13V17H22ZM4.39,26.33H9.55a.51.51,0,0,0,.52-.51V20.65a.51.51,0,0,0-.52-.51H4.39a.52.52,0,0,0-.52.51v5.17A.52.52,0,0,0,4.39,26.33Zm.52-5.16H9V25.3H4.91Zm16.52,5.16h5.16a.51.51,0,0,0,.52-.51V22.2l.93-.93a.51.51,0,0,0,0-.72.49.49,0,0,0-.72,0l-.21.21v-.11a.51.51,0,0,0-.52-.51H21.43a.51.51,0,0,0-.52.51v5.17A.51.51,0,0,0,21.43,26.33Zm4.65-1H22V23.21l1.73,1.73a.52.52,0,0,0,.36.16.54.54,0,0,0,.36-.16l1.68-1.7Zm0-4.13v.62l-2,2-1.48-1.47a.46.46,0,0,0-.61-.08V21.17Z"/><path class="cls-4" d="M22,25.22v-2l1.73,1.73a.52.52,0,0,0,.36.16.54.54,0,0,0,.36-.16l1.5-1.5V22L24,23.83l-1.48-1.47a.46.46,0,0,0-.61-.08V21.17H25.9v-1H21.43a.51.51,0,0,0-.52.51v4.57Zm-8.52,0v-2l1.73,1.73a.52.52,0,0,0,.36.16.54.54,0,0,0,.36-.16l1.5-1.5V22l-1.86,1.86L14,22.36a.46.46,0,0,0-.61-.08V21.17h3.95v-1H12.91a.51.51,0,0,0-.52.51v4.57ZM5.29.39V5.81H7.62V.39Zm17,0V5.81h2.33V.39Z"/><path class="cls-3" d="M6.53.59V4.72l-1,0V.59Zm17,0V4.72l-1,0V.59Z"/><path class="cls-3" d="M27.63,3H24.4V5.16a.4.4,0,0,1-.39.39H23a.4.4,0,0,1-.39-.39V3H7.36V5.16A.4.4,0,0,1,7,5.55h-1a.4.4,0,0,1-.39-.39V3H2.32A2,2,0,0,0,.39,4.91V8.65H29.56V4.91A2,2,0,0,0,27.63,3Z"/><path class="cls-4" d="M26.8,8.55V8.42h2.32V4.16a2.21,2.21,0,0,0-.18-.91h-2.3v.36h.16a1.3,1.3,0,0,1,1.29,1.3V7.28H.62V8.73H26.8Z"/><path class="cls-2" d="M28.09,8.73V9h0V26.13a1.3,1.3,0,0,1-1.3,1.29H1.52a1.65,1.65,0,0,1-.51-.1v1.21H28.43a2.33,2.33,0,0,0,.72-1.68V8.73Z"/><path class="cls-5" d="M27.63,2.58H25V1a1,1,0,0,0-1-1H23a1,1,0,0,0-1,1V2.58H8V1A1,1,0,0,0,7,0h-1a1,1,0,0,0-1,1V2.58H2.32A2.31,2.31,0,0,0,0,4.91V26.85a2.31,2.31,0,0,0,2.32,2.32H27.63A2.31,2.31,0,0,0,30,26.85V4.91A2.31,2.31,0,0,0,27.63,2.58ZM24,1V5.16H23V1ZM7,1V5.16h-1V1Zm22,25.82a1.28,1.28,0,0,1-1.29,1.29H2.32A1.28,1.28,0,0,1,1,26.85V9H28.92ZM28.92,8H1V4.91a1.28,1.28,0,0,1,1.29-1.3H4.91V5.16a1,1,0,0,0,1,1H7a1,1,0,0,0,1-1V3.61H22V5.16a1,1,0,0,0,1,1h1a1,1,0,0,0,1-1V3.61h2.59a1.28,1.28,0,0,1,1.29,1.3Z"/><path class="cls-5" d="M17.56,11.36H12.39a.51.51,0,0,0-.51.52V17a.52.52,0,0,0,.51.52h5.17a.52.52,0,0,0,.51-.52V11.88A.51.51,0,0,0,17.56,11.36ZM17,16.52H12.91V12.39H17ZM9,11.36H3.87a.51.51,0,0,0-.51.52V17a.52.52,0,0,0,.51.52H9A.52.52,0,0,0,9.55,17V11.88A.51.51,0,0,0,9,11.36Zm-.52,5.16H4.39V12.39H8.52Zm17.56-5.16H20.91a.51.51,0,0,0-.51.52V17a.52.52,0,0,0,.51.52h5.17a.52.52,0,0,0,.51-.52V11.88A.51.51,0,0,0,26.08,11.36Zm-.52,5.16H21.43V12.39h4.13ZM19,19.85a.51.51,0,0,0-.72,0l-.16.16V20a.51.51,0,0,0-.51-.52H12.44a.51.51,0,0,0-.51.52v5.16a.52.52,0,0,0,.51.52h5.17a.52.52,0,0,0,.51-.52V21.45l.88-.87a.5.5,0,0,0,0-.73ZM17.09,24.6H13v-2l1.65,1.68a.5.5,0,0,0,.73,0l1.73-1.73V24.6Zm0-3.56L15,23.13l-1.44-1.44a.53.53,0,0,0-.57-.11V20.5h4.13ZM9,19.62H3.87a.51.51,0,0,0-.51.52V25.3a.51.51,0,0,0,.51.52H9a.51.51,0,0,0,.51-.52V20.14A.51.51,0,0,0,9,19.62Zm-.52,5.17H4.39V20.65H8.52Zm19-4.76a.51.51,0,0,0-.72,0l-.21.21v-.1a.51.51,0,0,0-.51-.52H20.91a.51.51,0,0,0-.51.52V25.3a.51.51,0,0,0,.51.52h5.17a.51.51,0,0,0,.51-.52V21.69l.93-.93A.5.5,0,0,0,27.52,20Zm-2,4.76H21.43v-2.1l1.73,1.73a.49.49,0,0,0,.72,0l1.68-1.7Zm0-3.52-2,2-1.47-1.44a.48.48,0,0,0-.62-.08V20.65h4.13Z"/></g></g></g></svg>