<svg xmlns="http://www.w3.org/2000/svg" viewBox="0 0 25.87 33"><defs><style>.cls-1{fill:#a2a09c;}.cls-2{fill:#f46c5f;}</style></defs><g id="Layer_2" data-name="Layer 2"><g id="Layer_1-2" data-name="Layer 1"><path class="cls-1" d="M12.94,29.34H6.85a.44.44,0,0,0-.44.43.46.46,0,0,0,.44.46h6.09a.45.45,0,0,0,0-.89Z"/><path class="cls-2" d="M7.2,14.07a6.42,6.42,0,0,0,.11,1.16H9.45V12.94H7.31A6.1,6.1,0,0,0,7.2,14.07Z"/><path class="cls-2" d="M7.56,12.05H9.45V9.41A5.85,5.85,0,0,0,7.56,12.05Z"/><path class="cls-2" d="M14.53,12.05a5.13,5.13,0,0,0-3.1-2.79,6.79,6.79,0,0,1,1.66,2.79Z"/><path class="cls-2" d="M6.31,14.1a7.36,7.36,0,0,1,.1-1.16H5a4.75,4.75,0,0,0,0,2.29H6.41A7.08,7.08,0,0,1,6.31,14.1Z"/><path class="cls-2" d="M5.26,16.12a5.08,5.08,0,0,0,3,2.74,6.75,6.75,0,0,1-1.61-2.74Z"/><path class="cls-2" d="M8.23,9.31a5.11,5.11,0,0,0-3,2.74H6.62A6.75,6.75,0,0,1,8.23,9.31Z"/><path class="cls-2" d="M9.45,18.77V16.12H7.56A5.93,5.93,0,0,0,9.45,18.77Z"/><path class="cls-2" d="M10.34,9.47v2.58h1.81A6,6,0,0,0,10.34,9.47Z"/><path class="cls-2" d="M14.82,12.94H13.3a7.08,7.08,0,0,1,.1,1.13,7.36,7.36,0,0,1-.1,1.16h1.52A4.81,4.81,0,0,0,15,14.09h0A4.83,4.83,0,0,0,14.82,12.94Z"/><path class="cls-2" d="M9.89,7a7.1,7.1,0,1,0,7.1,7.1A7.1,7.1,0,0,0,9.89,7ZM9.89,20H9.84a6,6,0,0,1-.05-11.9h.1A6,6,0,1,1,9.89,20Z"/><path class="cls-2" d="M11.43,18.91a5.1,5.1,0,0,0,3.1-2.79H13.09A6.79,6.79,0,0,1,11.43,18.91Z"/><path class="cls-2" d="M10.34,16.12V18.7a6,6,0,0,0,1.81-2.58Z"/><path class="cls-2" d="M12.5,14.1a5.63,5.63,0,0,0-.11-1.16H10.34v2.29H12.4A6.09,6.09,0,0,0,12.5,14.1Z"/><path class="cls-1" d="M25.59,5.85h0a2.49,2.49,0,0,0-1.45-1.23L10,.12A2.49,2.49,0,0,0,6.9,1.73L6,4.67H2.49A2.49,2.49,0,0,0,0,7.15V30.51A2.5,2.5,0,0,0,2.49,33H17.3a2.5,2.5,0,0,0,2.49-2.49V26.43l6-18.68A2.43,2.43,0,0,0,25.59,5.85ZM18.9,30.51a1.6,1.6,0,0,1-1.6,1.6H2.49a1.6,1.6,0,0,1-1.6-1.6V7.15a1.6,1.6,0,0,1,1.6-1.59H17.3a1.6,1.6,0,0,1,1.6,1.59Zm6-23-5.11,16V7.15A2.49,2.49,0,0,0,17.3,4.67H6.9L7.75,2a1.6,1.6,0,0,1,2-1l14.11,4.5a1.61,1.61,0,0,1,.93.79A1.57,1.57,0,0,1,24.9,7.48Z"/><path class="cls-1" d="M15.46,26.19H4.33a.45.45,0,0,0,0,.89H15.46a.45.45,0,1,0,0-.89Z"/><path class="cls-1" d="M15.46,23H4.33a.45.45,0,0,0,0,.89H15.46a.45.45,0,0,0,.45-.44h0A.45.45,0,0,0,15.46,23Z"/></g></g></svg>