<svg xmlns="http://www.w3.org/2000/svg" viewBox="0 0 28.74 33"><defs><style>.cls-1{fill:#a2a09c;fill-rule:evenodd;}.cls-2{fill:#f46c5f;}</style></defs><g id="Layer_2" data-name="Layer 2"><g id="Layer_1-2" data-name="Layer 1"><path class="cls-1" d="M16.51,30.26H2a2,2,0,0,1-2-2V2A2,2,0,0,1,2,0H22.1a2,2,0,0,1,2,2V19.5h-1V2a1,1,0,0,0-1-.95H2A1,1,0,0,0,1,2V28.27a1,1,0,0,0,1,1H16.51v1Zm3.24-4.05a2.64,2.64,0,0,1,1.1-1.12,1.71,1.71,0,0,1-.4-1.1,1.69,1.69,0,1,1,3.38,0,1.71,1.71,0,0,1-.4,1.1,2.64,2.64,0,0,1,1.1,1.12,3,3,0,1,0-4.78,0Zm4,.74a1.66,1.66,0,0,0-3.16,0,3,3,0,0,0,3.16,0Zm-1.58-3.62a.66.66,0,1,0,.66.66A.67.67,0,0,0,22.14,23.33Zm0,5.1a4,4,0,1,0-4-4A4,4,0,0,0,22.14,28.43ZM19.61,17.32a.52.52,0,0,0,0-1H4.52a.52.52,0,0,0,0,1Zm-3.08,3.26a.52.52,0,1,0,0-1h-12a.51.51,0,0,0-.52.51H4a.51.51,0,0,0,.52.51Zm-1.76,3.56a.52.52,0,0,0,.51-.52.51.51,0,0,0-.51-.52H4.49a.52.52,0,0,0,0,1H14.77Zm.47,3.26a.52.52,0,0,0,.52-.52h0a.51.51,0,0,0-.52-.51H4.49a.52.52,0,1,0,0,1Z"/><path class="cls-2" d="M28.65,30.24l-1.57-2.73a2.06,2.06,0,0,0,.78-2.91.35.35,0,0,1,0-.41,2,2,0,0,0-1-3,.38.38,0,0,1-.24-.34A2,2,0,0,0,24.1,19a.35.35,0,0,1-.39-.13,2,2,0,0,0-3.14,0,.35.35,0,0,1-.39.13,2,2,0,0,0-2.54,1.84.35.35,0,0,1-.24.34,1.94,1.94,0,0,0-1.19,1.26,2,2,0,0,0,.22,1.72.35.35,0,0,1,0,.41,2,2,0,0,0,.77,2.91l-1.57,2.73a.65.65,0,0,0,0,.71.69.69,0,0,0,.66.28L18,30.92l.6,1.64a.66.66,0,0,0,.62.44.68.68,0,0,0,.58-.33l1.31-2.28a2.16,2.16,0,0,0,2,0l1.32,2.28a.66.66,0,0,0,1.2-.11l.59-1.64,1.72.3a.66.66,0,0,0,.66-.27A.65.65,0,0,0,28.65,30.24Zm-9.31,1.22-.47-1.31a.53.53,0,0,0-.58-.33l-1.37.24.86-1.48a2.06,2.06,0,0,0,.7.86,1.93,1.93,0,0,0,1.7.33l.14,0Zm3.55-2.19a.93.93,0,0,1-.75.33.9.9,0,0,1-.74-.33,1.4,1.4,0,0,0-1.52-.49,1,1,0,0,1-1.21-.88,1.39,1.39,0,0,0-.93-1.29.88.88,0,0,1-.54-.6.9.9,0,0,1,.08-.81,1.42,1.42,0,0,0,0-1.6,1,1,0,0,1,.46-1.42,1.38,1.38,0,0,0,.93-1.29,1,1,0,0,1,.41-.7.93.93,0,0,1,.8-.17,1.39,1.39,0,0,0,1.52-.49.9.9,0,0,1,.74-.33.93.93,0,0,1,.75.33A1.37,1.37,0,0,0,24.4,20a.93.93,0,0,1,.8.17,1,1,0,0,1,.41.7,1.38,1.38,0,0,0,.94,1.29,1,1,0,0,1,.54.61,1,1,0,0,1-.08.81,1.38,1.38,0,0,0,0,1.6,1,1,0,0,1,.08.81.93.93,0,0,1-.54.6,1.39,1.39,0,0,0-.94,1.29,1,1,0,0,1-1.21.88A1.37,1.37,0,0,0,22.89,29.27Zm3.1.55a.53.53,0,0,0-.58.33l-.47,1.31-1-1.71.14,0a2,2,0,0,0,1.71-.33,2.11,2.11,0,0,0,.69-.86l.86,1.48Z"/><path class="cls-2" d="M17.83,5.4a2.49,2.49,0,0,0-1,.34A5.18,5.18,0,0,0,14.91,3.5a9,9,0,0,0-2.85-.4,8.94,8.94,0,0,0-2.84.4A5.18,5.18,0,0,0,7.35,5.74,2.48,2.48,0,0,0,6.29,5.4a.83.83,0,0,0-.48.14.71.71,0,0,0-.28.57A2,2,0,0,0,6.21,7.5a.76.76,0,0,0,.18.09,6.25,6.25,0,0,0-.35,2,5.7,5.7,0,0,0,.5,2.68v.83a1,1,0,0,0,1,1h1a1,1,0,0,0,1-1V12.8a11,11,0,0,0,2.51.34,11,11,0,0,0,2.52-.34v.34a1,1,0,0,0,1,1h1a1,1,0,0,0,1-1v-.83a5.7,5.7,0,0,0,.5-2.68,6.27,6.27,0,0,0-.36-2,.66.66,0,0,0,.19-.09,2,2,0,0,0,.67-1.39A.7.7,0,0,0,17.83,5.4Zm-8.16-1a8.58,8.58,0,0,1,2.39-.3,8.67,8.67,0,0,1,2.4.3,4.78,4.78,0,0,1,1.62,2.28c-.95.13-3.18.43-4,.43s-3.06-.3-4-.43A4.71,4.71,0,0,1,9.67,4.4ZM6.83,6.7l-.14-.17.19.1Zm1.72,6.44h-1v-.5h1Zm8,0h-1v-.5h1Zm.24-1.51H15.08a.41.41,0,0,0-.16,0,10.61,10.61,0,0,1-2.86.48,10.59,10.59,0,0,1-2.85-.48H9.16a.45.45,0,0,0-.11,0H7.31a5.72,5.72,0,0,1-.27-2,4.63,4.63,0,0,1,0-.51c.68,0,1.48.25,1.48.51a.5.5,0,0,0,1,0c0-1.23-1.65-1.46-2.28-1.5a3,3,0,0,1,.2-.52h0c.14,0,3.46.51,4.59.51s4.46-.49,4.6-.51h0a4,4,0,0,1,.2.52c-.63,0-2.28.27-2.28,1.5a.5.5,0,0,0,1,0c0-.26.8-.48,1.48-.51,0,.18,0,.35,0,.51A5.72,5.72,0,0,1,16.82,11.63ZM17.3,6.7h0l-.05-.07.19-.1Z"/><path class="cls-2" d="M13.07,9.12h-2a.51.51,0,0,0,0,1h2a.51.51,0,0,0,0-1Z"/></g></g></svg>