<svg xmlns="http://www.w3.org/2000/svg" viewBox="0 0 38.4 27.7"><defs><style>.cls-1{fill:#02aaaa;}.cls-2{fill:#049e9a;}.cls-3{fill:#eee;}.cls-4{fill:#dbdbdb;}.cls-5{fill:#00b6bf;}.cls-6{fill:#5ab8ba;}.cls-7{fill:#3974af;}.cls-8{fill:#5c637f;}.cls-9{fill:#e8e8ea;}.cls-10{fill:#1b4b6e;}.cls-11{fill:#264357;}.cls-12{fill:#f0cea7;}.cls-13{fill:#e0b894;}.cls-14{fill:#f44040;}.cls-15{fill:#ea3939;}.cls-16{fill:#d6a780;}.cls-17{fill:#c4c6c6;}</style></defs><g id="Layer_2" data-name="Layer 2"><g id="Layer_1-2" data-name="Layer 1"><g id="SvgjsG1008"><path class="cls-1" d="M37,5.5,5.28,0a1.74,1.74,0,0,0-2,1.42L2.6,5.32,0,20.18a1.74,1.74,0,0,0,1.42,2l31.67,5.47a1.73,1.73,0,0,0,2-1.42L37.7,11.38l.67-3.86A1.74,1.74,0,0,0,37,5.5Z"/><polygon class="cls-2" points="17.25 24.93 22.21 25.79 35.21 25.79 35.36 24.93 17.25 24.93"/><path class="cls-3" d="M1.38,8.27V23.36A1.75,1.75,0,0,0,3.13,25.1H35.27A1.74,1.74,0,0,0,37,23.36V8.27Z"/><rect class="cls-4" x="34.48" y="22.57" width="0.69" height="2.27"/><rect class="cls-4" x="33.21" y="22.57" width="0.69" height="2.27"/><rect class="cls-4" x="32.28" y="22.57" width="0.35" height="2.27"/><rect class="cls-4" x="30.83" y="22.57" width="0.83" height="2.27"/><rect class="cls-4" x="29.91" y="22.57" width="0.35" height="2.27"/><rect class="cls-4" x="28.29" y="22.57" width="0.69" height="2.27"/><rect class="cls-4" x="27.37" y="22.57" width="0.35" height="2.27"/><rect class="cls-4" x="26.43" y="22.57" width="0.35" height="2.27"/><rect class="cls-4" x="24.88" y="22.57" width="0.96" height="2.27"/><rect class="cls-4" x="23.61" y="22.57" width="0.69" height="2.27"/><rect class="cls-4" x="22.69" y="22.57" width="0.35" height="2.27"/><rect class="cls-4" x="21.49" y="22.57" width="0.69" height="2.27"/><rect class="cls-4" x="20.05" y="22.57" width="0.93" height="2.27"/><rect class="cls-4" x="19.12" y="22.57" width="0.35" height="2.27"/><rect class="cls-4" x="18.32" y="22.57" width="0.35" height="2.27"/><rect class="cls-4" x="17.05" y="22.57" width="0.69" height="2.27"/><rect class="cls-4" x="15.53" y="22.57" width="0.96" height="2.27"/><rect class="cls-4" x="14.76" y="22.57" width="0.23" height="2.27"/><path class="cls-5" d="M37,4.34A1.74,1.74,0,0,0,35.27,2.6H3.13A1.75,1.75,0,0,0,1.38,4.34V8.27H37Z"/><path class="cls-1" d="M5.92,4.4H7a1.28,1.28,0,0,1,.52.09.8.8,0,0,1,.32.25A1,1,0,0,1,8,5.12a1.7,1.7,0,0,1,.06.46A1.55,1.55,0,0,1,8,6.17a.92.92,0,0,1-.24.35.77.77,0,0,1-.33.18A1.42,1.42,0,0,1,7,6.77H5.92V4.4Zm.73.54V6.23h.18a.84.84,0,0,0,.33-.05A.35.35,0,0,0,7.31,6a1,1,0,0,0,.06-.41.73.73,0,0,0-.13-.51.48.48,0,0,0-.4-.14Zm1.8.11h.61v.29a.72.72,0,0,1,.18-.26A.48.48,0,0,1,9.48,5a.74.74,0,0,1,.32.09l-.21.46a.54.54,0,0,0-.18,0,.22.22,0,0,0-.2.1,1.07,1.07,0,0,0-.1.56v.58H8.45V5.05ZM9.93,4.4h.66v.45H9.93Zm0,.65h.66V6.77H9.93Zm.88,0h.69l.33,1.09.34-1.09h.67l-.73,1.72h-.58Zm2.24-.65h.66v.45h-.66Zm0,.65h.66V6.77h-.66Zm1.08,0h.61v.28A.88.88,0,0,1,15,5.09.69.69,0,0,1,15.36,5a.54.54,0,0,1,.42.16.67.67,0,0,1,.16.5V6.77h-.66V5.83a.33.33,0,0,0-.06-.23.21.21,0,0,0-.17-.07.23.23,0,0,0-.19.09.53.53,0,0,0-.08.33v.82h-.65V5.05Zm3.39,0h.62v1.7a.67.67,0,0,1-.07.31.68.68,0,0,1-.18.23.65.65,0,0,1-.29.13,1.64,1.64,0,0,1-.4,0,1.2,1.2,0,0,1-.71-.15.5.5,0,0,1-.19-.42V6.81l.64.07A.18.18,0,0,0,17,7a.35.35,0,0,0,.18,0A.29.29,0,0,0,17.41,7a.46.46,0,0,0,.07-.27V6.45a.76.76,0,0,1-.2.17A.73.73,0,0,1,17,6.7a.65.65,0,0,1-.55-.3,1,1,0,0,1-.15-.56.86.86,0,0,1,.19-.61A.66.66,0,0,1,17,5a.81.81,0,0,1,.33.06.65.65,0,0,1,.24.23V5.05Zm-.62.84a.41.41,0,0,0,.08.27.29.29,0,0,0,.42,0,.44.44,0,0,0,.08-.28.42.42,0,0,0-.09-.29.27.27,0,0,0-.41,0A.48.48,0,0,0,16.9,5.89ZM19.68,4.4h.73V6.19h1.14v.58H19.68Zm2.19,0h.65v.45h-.65Zm0,.65h.65V6.77h-.65Zm2.35,1,.62.07a.84.84,0,0,1-.17.34.69.69,0,0,1-.3.22,1.19,1.19,0,0,1-.46.08,2,2,0,0,1-.46,0,.85.85,0,0,1-.31-.17.73.73,0,0,1-.2-.26,1.11,1.11,0,0,1,0-.85,1,1,0,0,1,.18-.23.79.79,0,0,1,.24-.15A1.17,1.17,0,0,1,23.86,5a1.14,1.14,0,0,1,.64.15.76.76,0,0,1,.31.44l-.62.08a.29.29,0,0,0-.1-.17.41.41,0,0,0-.21,0,.33.33,0,0,0-.26.11.53.53,0,0,0-.1.36.46.46,0,0,0,.1.32.36.36,0,0,0,.47,0A.37.37,0,0,0,24.22,6.1Zm2.83,0H25.73a.38.38,0,0,0,.09.24.31.31,0,0,0,.25.11.41.41,0,0,0,.18,0,.29.29,0,0,0,.11-.11l.65.06a.86.86,0,0,1-.36.37,1.22,1.22,0,0,1-.6.12,1.25,1.25,0,0,1-.53-.1.86.86,0,0,1-.33-.3,1,1,0,0,1-.13-.5.89.89,0,0,1,.26-.65A1,1,0,0,1,26,5a1.17,1.17,0,0,1,.58.11.73.73,0,0,1,.33.32,1.22,1.22,0,0,1,.11.55v.07Zm-.67-.31a.43.43,0,0,0-.1-.27.29.29,0,0,0-.22-.09.3.3,0,0,0-.25.13.44.44,0,0,0-.08.23Zm1-.71H28v.28a1,1,0,0,1,.28-.24A.71.71,0,0,1,28.58,5a.56.56,0,0,1,.43.16.71.71,0,0,1,.15.5V6.77H28.5V5.83a.33.33,0,0,0-.06-.23.19.19,0,0,0-.17-.07.23.23,0,0,0-.19.09A.54.54,0,0,0,28,6v.82h-.66V5.05Zm2.09,1.24.65-.06a.36.36,0,0,0,.11.17.39.39,0,0,0,.2,0,.32.32,0,0,0,.2-.06.12.12,0,0,0,.06-.1.12.12,0,0,0-.08-.11,1.3,1.3,0,0,0-.28-.07A3,3,0,0,1,29.83,6a.55.55,0,0,1-.23-.17.47.47,0,0,1-.09-.28.43.43,0,0,1,.1-.29.54.54,0,0,1,.27-.18A1.42,1.42,0,0,1,30.34,5a1.76,1.76,0,0,1,.46,0,.61.61,0,0,1,.24.15.72.72,0,0,1,.16.26l-.62.07a.24.24,0,0,0-.08-.13.38.38,0,0,0-.19,0,.31.31,0,0,0-.16,0,.11.11,0,0,0,0,.1.1.1,0,0,0,.06.09l.28.06a2.56,2.56,0,0,1,.49.1.52.52,0,0,1,.24.19.46.46,0,0,1,.09.27.52.52,0,0,1-.09.29.58.58,0,0,1-.28.22,1.3,1.3,0,0,1-.53.09,1.26,1.26,0,0,1-.67-.14A.56.56,0,0,1,29.44,6.29Zm4-.22H32.16a.45.45,0,0,0,.08.24.34.34,0,0,0,.25.11.41.41,0,0,0,.19,0,.37.37,0,0,0,.11-.11l.65.06a.86.86,0,0,1-.36.37,1.22,1.22,0,0,1-.6.12,1.3,1.3,0,0,1-.54-.1.77.77,0,0,1-.32-.3.91.91,0,0,1-.13-.5.89.89,0,0,1,.26-.65A1,1,0,0,1,32.46,5a1.2,1.2,0,0,1,.58.11.71.71,0,0,1,.32.32,1.09,1.09,0,0,1,.12.55v.07Zm-.66-.31a.42.42,0,0,0-.11-.27.26.26,0,0,0-.21-.09.3.3,0,0,0-.25.13.44.44,0,0,0-.08.23Z"/><path class="cls-4" d="M4.57,11.17V19a.67.67,0,0,0,.68.67h7A.67.67,0,0,0,13,19V11.17a.67.67,0,0,0-.67-.67h-7A.67.67,0,0,0,4.57,11.17Zm11.34.46h8.58a.57.57,0,1,0,0-1.13H15.91a.57.57,0,1,0,0,1.13ZM32.43,13.2H15.37a.38.38,0,0,0-.37.37h0a.38.38,0,0,0,.37.37H32.43a.37.37,0,0,0,.36-.37h0A.37.37,0,0,0,32.43,13.2Zm0,2.44H15.37A.37.37,0,0,0,15,16h0a.37.37,0,0,0,.37.36H32.43a.36.36,0,0,0,.36-.36h0A.36.36,0,0,0,32.43,15.64ZM21.16,18.08H15.37a.37.37,0,0,0-.37.36h0a.37.37,0,0,0,.37.37h5.79a.36.36,0,0,0,.36-.37h0A.36.36,0,0,0,21.16,18.08Zm13.83,0H29.2a.36.36,0,0,0-.36.36h0a.36.36,0,0,0,.36.37H35a.36.36,0,0,0,.36-.37h0A.36.36,0,0,0,35,18.08ZM21.16,20.51H15.37a.38.38,0,0,0-.37.37h0a.38.38,0,0,0,.37.37h5.79a.37.37,0,0,0,.36-.37h0A.37.37,0,0,0,21.16,20.51Zm13.83,0H29.2a.37.37,0,0,0-.36.37h0a.37.37,0,0,0,.36.37H35a.37.37,0,0,0,.36-.37h0A.37.37,0,0,0,35,20.51Z"/><path class="cls-6" d="M4,10.54v7.78a.67.67,0,0,0,.67.67h7a.67.67,0,0,0,.67-.67V10.54a.67.67,0,0,0-.67-.67h-7A.67.67,0,0,0,4,10.54Z"/><path class="cls-7" d="M15.28,11h8.59a.57.57,0,0,0,0-1.13H15.28a.57.57,0,0,0,0,1.13Z"/><path class="cls-8" d="M31.8,12.58h-17a.36.36,0,0,0-.37.37h0a.36.36,0,0,0,.37.36H31.8a.37.37,0,0,0,.37-.36h0A.37.37,0,0,0,31.8,12.58Zm0,2.44h-17a.36.36,0,0,0-.37.36h0a.37.37,0,0,0,.37.37H31.8a.38.38,0,0,0,.37-.37h0A.37.37,0,0,0,31.8,15ZM20.53,17.45H14.75a.37.37,0,0,0-.37.37h0a.36.36,0,0,0,.37.36h5.78a.37.37,0,0,0,.37-.36h0A.38.38,0,0,0,20.53,17.45Zm13.83,0H28.58a.38.38,0,0,0-.37.37h0a.37.37,0,0,0,.37.36h5.78a.36.36,0,0,0,.37-.36h0A.37.37,0,0,0,34.36,17.45ZM20.53,19.89H14.75a.36.36,0,0,0-.37.37h0a.36.36,0,0,0,.37.36h5.78a.37.37,0,0,0,.37-.36h0A.37.37,0,0,0,20.53,19.89Zm13.83,0H28.58a.37.37,0,0,0-.37.37h0a.37.37,0,0,0,.37.36h5.78a.36.36,0,0,0,.37-.36h0A.36.36,0,0,0,34.36,19.89Z"/><path class="cls-4" d="M10.83,23.42a.78.78,0,0,1-.66-.41,1.5,1.5,0,0,1-.14-.86v-.07c0-.07,0-.13,0-.2l-.69,1.06a.28.28,0,0,1-.37.14.24.24,0,0,1-.14-.17l-.26-.7h0a2.54,2.54,0,0,1-.8.37,1,1,0,0,1-1-.28c-.06-.08-.11-.17-.16-.25s-.15-.26-.22-.26-.2.2-.24.4l-.35-.07c.09-.44.3-.69.58-.69h0c.28,0,.42.25.52.44a2.36,2.36,0,0,0,.13.2.64.64,0,0,0,.61.16,2.22,2.22,0,0,0,.7-.33h0a.34.34,0,0,1,.34,0A.35.35,0,0,1,8.9,22l.22.6L10.21,21l.11.35a2,2,0,0,1,.07.77v.07a1.3,1.3,0,0,0,.1.68.39.39,0,0,0,.43.21l.14.33A.57.57,0,0,1,10.83,23.42Z"/><rect class="cls-8" x="34.04" y="22.13" width="0.69" height="2.27"/><rect class="cls-8" x="32.77" y="22.13" width="0.69" height="2.27"/><rect class="cls-8" x="31.85" y="22.13" width="0.35" height="2.27"/><rect class="cls-8" x="30.39" y="22.13" width="0.83" height="2.27"/><rect class="cls-8" x="29.47" y="22.13" width="0.35" height="2.27"/><rect class="cls-8" x="27.85" y="22.13" width="0.69" height="2.27"/><rect class="cls-8" x="26.93" y="22.13" width="0.35" height="2.27"/><rect class="cls-8" x="25.99" y="22.13" width="0.35" height="2.27"/><rect class="cls-8" x="24.45" y="22.13" width="0.96" height="2.27"/><rect class="cls-8" x="23.18" y="22.13" width="0.69" height="2.27"/><rect class="cls-8" x="22.25" y="22.13" width="0.35" height="2.27"/><rect class="cls-8" x="21.05" y="22.13" width="0.69" height="2.27"/><rect class="cls-8" x="19.61" y="22.13" width="0.93" height="2.27"/><rect class="cls-8" x="18.69" y="22.13" width="0.35" height="2.27"/><rect class="cls-8" x="17.88" y="22.13" width="0.35" height="2.27"/><rect class="cls-8" x="16.61" y="22.13" width="0.69" height="2.27"/><rect class="cls-8" x="15.09" y="22.13" width="0.96" height="2.27"/><rect class="cls-8" x="14.33" y="22.13" width="0.23" height="2.27"/><path class="cls-8" d="M10.52,23.11a.77.77,0,0,1-.66-.41,1.5,1.5,0,0,1-.14-.86v-.07a1.34,1.34,0,0,1,0-.2L9,22.63a.28.28,0,0,1-.37.14.27.27,0,0,1-.14-.18l-.26-.69h0a2.72,2.72,0,0,1-.81.37,1,1,0,0,1-1-.29,2,2,0,0,1-.16-.24c-.09-.16-.15-.26-.23-.26s-.19.19-.23.39l-.35-.06c.08-.44.29-.69.58-.69h0c.29,0,.42.25.53.44a1.37,1.37,0,0,0,.13.2.64.64,0,0,0,.61.16,2.46,2.46,0,0,0,.7-.33h0a.34.34,0,0,1,.34,0,.37.37,0,0,1,.14.19l.22.6,1.08-1.67L10,21a1.89,1.89,0,0,1,.06.78v.07a1.3,1.3,0,0,0,.1.68.39.39,0,0,0,.43.21l.14.33A.57.57,0,0,1,10.52,23.11Z"/><path class="cls-9" d="M5.42,3.9H6.51A1.28,1.28,0,0,1,7,4a.8.8,0,0,1,.32.25,1,1,0,0,1,.19.38,1.7,1.7,0,0,1,.06.46,1.55,1.55,0,0,1-.09.59A.92.92,0,0,1,7.27,6a.77.77,0,0,1-.33.18,1.42,1.42,0,0,1-.43.07H5.42V3.9Zm.73.54V5.73h.18a.8.8,0,0,0,.33-.05.31.31,0,0,0,.15-.18,1,1,0,0,0,.06-.41.73.73,0,0,0-.13-.51.51.51,0,0,0-.4-.14ZM8,4.56h.61v.28a.62.62,0,0,1,.19-.26A.41.41,0,0,1,9,4.52a.71.71,0,0,1,.32.09l-.21.46a.49.49,0,0,0-.18,0,.22.22,0,0,0-.2.1,1.07,1.07,0,0,0-.1.56v.58H8ZM9.43,3.9h.66v.45H9.43Zm0,.66h.66V6.27H9.43Zm.88,0H11l.33,1.08.34-1.08h.67l-.73,1.71H11Zm2.24-.66h.66v.45h-.66Zm0,.66h.66V6.27h-.66Zm1.08,0h.61v.27a.88.88,0,0,1,.28-.24.69.69,0,0,1,.34-.07.57.57,0,0,1,.43.16.71.71,0,0,1,.15.5V6.27h-.66V5.33a.33.33,0,0,0-.06-.23A.21.21,0,0,0,14.55,5a.23.23,0,0,0-.19.09.53.53,0,0,0-.08.33v.82h-.65V4.56Zm3.39,0h.62V6.25a.67.67,0,0,1-.07.31.58.58,0,0,1-.18.23.65.65,0,0,1-.29.13,1.64,1.64,0,0,1-.4,0A1.23,1.23,0,0,1,16,6.81a.5.5,0,0,1-.19-.42V6.31l.64.07a.18.18,0,0,0,.07.12.29.29,0,0,0,.19,0,.28.28,0,0,0,.21-.07A.44.44,0,0,0,17,6.21V6a.76.76,0,0,1-.2.17.72.72,0,0,1-.32.08.66.66,0,0,1-.56-.3,1,1,0,0,1-.15-.56.91.91,0,0,1,.19-.61.66.66,0,0,1,.51-.21.81.81,0,0,1,.33.06.65.65,0,0,1,.24.23V4.56Zm-.61.83a.41.41,0,0,0,.07.27.29.29,0,0,0,.42,0A.44.44,0,0,0,17,5.38a.42.42,0,0,0-.09-.29.28.28,0,0,0-.21-.1.25.25,0,0,0-.2.09A.51.51,0,0,0,16.41,5.39ZM19.18,3.9h.73V5.69h1.14v.58H19.18Zm2.19,0H22v.45h-.65Zm0,.66H22V6.27h-.65Zm2.35,1,.62.07a.84.84,0,0,1-.17.34.69.69,0,0,1-.3.22,1.19,1.19,0,0,1-.46.08,2,2,0,0,1-.46,0,.85.85,0,0,1-.31-.17.73.73,0,0,1-.2-.26,1,1,0,0,1-.08-.41A1,1,0,0,1,22.45,5a1,1,0,0,1,.18-.23.79.79,0,0,1,.24-.15,1.17,1.17,0,0,1,.49-.08,1.14,1.14,0,0,1,.64.15.76.76,0,0,1,.31.44l-.62.08a.32.32,0,0,0-.1-.17.41.41,0,0,0-.21,0,.33.33,0,0,0-.26.11.53.53,0,0,0-.1.36.44.44,0,0,0,.1.32.36.36,0,0,0,.47,0A.37.37,0,0,0,23.72,5.6Zm2.83,0H25.23a.38.38,0,0,0,.09.24.34.34,0,0,0,.43.06.33.33,0,0,0,.11-.1l.65.05a.86.86,0,0,1-.36.37,1.22,1.22,0,0,1-.6.12,1.28,1.28,0,0,1-.53-.1.78.78,0,0,1-.33-.3,1,1,0,0,1-.13-.5.89.89,0,0,1,.26-.65,1,1,0,0,1,.71-.24,1.17,1.17,0,0,1,.58.11.73.73,0,0,1,.33.32,1.22,1.22,0,0,1,.11.55v.07Zm-.67-.31a.43.43,0,0,0-.1-.27.29.29,0,0,0-.22-.08.3.3,0,0,0-.25.12.44.44,0,0,0-.08.23Zm1-.7h.61v.27a1,1,0,0,1,.28-.24.71.71,0,0,1,.34-.07.56.56,0,0,1,.43.16.71.71,0,0,1,.15.5V6.27H28V5.33a.33.33,0,0,0-.06-.23A.19.19,0,0,0,27.77,5a.25.25,0,0,0-.19.09.54.54,0,0,0-.07.33v.82h-.66V4.56Zm2.09,1.23.65-.06a.36.36,0,0,0,.11.17.39.39,0,0,0,.2,0,.32.32,0,0,0,.2-.06.12.12,0,0,0,.06-.1.12.12,0,0,0-.08-.11,1.3,1.3,0,0,0-.28-.07,3,3,0,0,1-.47-.11.48.48,0,0,1-.23-.17A.47.47,0,0,1,29,5.05a.43.43,0,0,1,.1-.29.54.54,0,0,1,.27-.18,1.47,1.47,0,0,1,.46-.06,1.76,1.76,0,0,1,.46,0,.61.61,0,0,1,.24.15A.72.72,0,0,1,30.7,5L30.08,5A.24.24,0,0,0,30,4.91a.38.38,0,0,0-.19,0,.31.31,0,0,0-.16,0,.11.11,0,0,0,0,.1.1.1,0,0,0,.06.09.91.91,0,0,0,.28.06,2.56,2.56,0,0,1,.49.1.52.52,0,0,1,.24.19.46.46,0,0,1,.09.27.55.55,0,0,1-.37.51,1.3,1.3,0,0,1-.53.09,1.26,1.26,0,0,1-.67-.14A.6.6,0,0,1,28.94,5.79Zm4-.22H31.66a.45.45,0,0,0,.08.24.34.34,0,0,0,.25.11.32.32,0,0,0,.19,0,.47.47,0,0,0,.11-.1l.65.05a.86.86,0,0,1-.36.37,1.22,1.22,0,0,1-.6.12,1.3,1.3,0,0,1-.54-.1.71.71,0,0,1-.32-.3.91.91,0,0,1-.13-.5.89.89,0,0,1,.26-.65A1,1,0,0,1,32,4.52a1.2,1.2,0,0,1,.58.11.71.71,0,0,1,.32.32A1.09,1.09,0,0,1,33,5.5v.07Zm-.66-.31A.42.42,0,0,0,32.2,5,.25.25,0,0,0,32,4.91a.29.29,0,0,0-.25.12.44.44,0,0,0-.08.23Z"/><path class="cls-10" d="M8.14,10.94A1.86,1.86,0,0,0,6.28,12.8v2.5a2,2,0,0,1,.43-.05h.55a1,1,0,0,1,0-.18v-.16a1.35,1.35,0,0,0,.9.34,1.34,1.34,0,0,0,.94-.39v.21a.9.9,0,0,1,0,.18h.5a2,2,0,0,1,.43.05V12.8A1.85,1.85,0,0,0,8.14,10.94Z"/><path class="cls-11" d="M6.28,15.26v0a2,2,0,0,1,.43-.05H6.28Zm1.86-4.32H8A1.87,1.87,0,0,1,9.65,12.8v2.46a2.09,2.09,0,0,1,.35,0V12.8A1.87,1.87,0,0,0,8.14,10.94Zm.59,4.13v-.21a1.34,1.34,0,0,1-.77.38h.18a1.37,1.37,0,0,0,.58-.13S8.73,15.09,8.73,15.07Z"/><path class="cls-12" d="M8.44,12.48a1.28,1.28,0,0,1-1.62.68v.77a1.32,1.32,0,0,0,2.64,0V13A1.72,1.72,0,0,0,8.44,12.48Z"/><path class="cls-13" d="M7.12,13.23a1.33,1.33,0,0,1-.3-.07v.07Zm1.32-.75,0,.07a1.6,1.6,0,0,1,.72.47v.91A1.32,1.32,0,0,1,8,15.24h.17a1.32,1.32,0,0,0,1.32-1.32V13A1.72,1.72,0,0,0,8.44,12.48Z"/><path class="cls-3" d="M9.56,15.25h-.5a.92.92,0,0,1-1.8,0H6.71a2.07,2.07,0,0,0-2.06,2.07v.6h7v-.6A2.08,2.08,0,0,0,9.56,15.25Z"/><path class="cls-4" d="M9.56,15.25H9.15a2.07,2.07,0,0,1,2.06,2.07v.6h.41v-.6A2.07,2.07,0,0,0,9.56,15.25Z"/><path class="cls-14" d="M9.08,15.25h0a.92.92,0,0,1-1.8,0h0v2.67H9.08Z"/><path class="cls-15" d="M9.06,15.25a.94.94,0,0,1-.29.5v2.17h.31V15.25Z"/><path class="cls-13" d="M8.14,15.25a1.31,1.31,0,0,1-.9-.35v.17a.92.92,0,0,0,1.84,0v-.21A1.34,1.34,0,0,1,8.14,15.25Z"/><path class="cls-16" d="M7.78,15.25H8a1.38,1.38,0,0,1-.72-.34v.17s0,0,0,.07A1.32,1.32,0,0,0,7.78,15.25Zm.94-.13A.93.93,0,0,1,8,16l.18,0a.92.92,0,0,0,.92-.92v-.21A1.5,1.5,0,0,1,8.72,15.12Z"/><polygon class="cls-4" points="7.26 15.25 7.26 17.92 6.57 17.92 6.28 16.67 6.77 16.32 6.17 15.99 7.26 15.25"/><polygon class="cls-17" points="6.96 15.46 6.96 17.92 7.26 17.92 7.26 15.25 6.96 15.46"/><polygon class="cls-4" points="9.06 15.25 9.06 17.92 9.75 17.92 10.04 16.67 9.55 16.32 10.15 15.99 9.06 15.25"/><polygon class="cls-17" points="10.15 15.99 9.06 15.25 9.06 15.5 9.79 15.99 9.18 16.32 9.68 16.67 9.39 17.92 9.75 17.92 10.04 16.67 9.55 16.32 10.15 15.99"/></g></g></g></svg>