<svg xmlns="http://www.w3.org/2000/svg" viewBox="0 0 31.19 34.53"><defs><style>.cls-1{fill:#005c98;}.cls-2{fill:#5089c3;}.cls-3{fill:#f2f2f3;}</style></defs><g id="Layer_2" data-name="Layer 2"><g id="Layer_1-2" data-name="Layer 1"><g id="SvgjsG1008"><path class="cls-1" d="M29.82,4.92,13.15.08a1.85,1.85,0,0,0-2.28,1.24L4,25.12A1.8,1.8,0,0,0,5.29,27.4L22,32.25A1.85,1.85,0,0,0,24.24,31L31.15,7.2A1.89,1.89,0,0,0,29.82,4.92Z"/><path class="cls-2" d="M19.17,6.1H1.84A1.82,1.82,0,0,0,0,7.94V32.69a1.82,1.82,0,0,0,1.84,1.84H19.17A1.82,1.82,0,0,0,21,32.69V7.94A1.82,1.82,0,0,0,19.17,6.1Z"/><rect class="cls-3" x="3.97" y="9.11" width="13.15" height="2.94"/><path class="cls-3" d="M10.5,14.4a8.82,8.82,0,1,0,8.82,8.81A8.84,8.84,0,0,0,10.5,14.4ZM17,20H15.28a10.11,10.11,0,0,0-1.18-3A6.29,6.29,0,0,1,17,20Zm.81,3.16a6,6,0,0,1-.22,1.62h-2a11,11,0,0,0,.08-1.62,10.33,10.33,0,0,0-.08-1.61h2A6.37,6.37,0,0,1,17.78,23.14Zm-14.55,0a5.91,5.91,0,0,1,.22-1.61h2a11,11,0,0,0-.15,1.61,12,12,0,0,0,.07,1.62H3.45A6,6,0,0,1,3.23,23.14Zm3.6,0c0-.59.07-1.1.07-1.61H9.7v3.3H6.9C6.9,24.24,6.83,23.73,6.83,23.14Zm4.41-7c1.1.51,2,2,2.5,3.89h-2.5Zm-1.47,0V20H7.27C7.71,18.07,8.67,16.53,9.77,16.09Zm0,10.28v3.9c-1.1-.52-2-2-2.5-3.9Zm1.47,3.9v-3.9h2.5A5.64,5.64,0,0,1,11.24,30.27Zm0-5.44v-3.3H14a12.39,12.39,0,0,1,.07,1.61c0,.59-.07,1.1-.07,1.62H11.24ZM6.83,16.9a12.25,12.25,0,0,0-1.17,3H4A7.93,7.93,0,0,1,6.83,16.9ZM4,26.37H5.66a10.34,10.34,0,0,0,1.17,3A7.55,7.55,0,0,1,4,26.37Zm10.21,3a12.33,12.33,0,0,0,1.17-3H17A7.55,7.55,0,0,1,14.18,29.39Z"/></g></g></g></svg>