<svg xmlns="http://www.w3.org/2000/svg" viewBox="0 0 31.37 26.97"><defs><style>.cls-1{fill:#a2a09c;}.cls-2{fill:#f46c5f;}</style></defs><g id="Layer_2" data-name="Layer 2"><g id="Layer_1-2" data-name="Layer 1"><path class="cls-1" d="M31.33,15.26h0L25.41.39a.62.62,0,0,0-.8-.35h0L.57,9.61a.66.66,0,0,0-.24.2.6.6,0,0,0-.33.53v16A.61.61,0,0,0,.62,27H26.48a.61.61,0,0,0,.62-.61V17.61L31,16.06a.61.61,0,0,0,.34-.8ZM25.87,25.74H1.23V11H25.87Zm-15.59-16L20.59,5.62a4.86,4.86,0,0,0,3.53,1.52l1,2.59ZM27.1,16.29V10.34a.61.61,0,0,0-.62-.61h0l-1.3-3.28-.05-.08a.61.61,0,0,0-.65-.47,3.71,3.71,0,0,1-3.23-1.39.6.6,0,0,0-.79-.14l-.08,0L7.78,9.4a.61.61,0,0,0-.34.33H3.62L24.49,1.42,30,15.15Z"/><path class="cls-1" d="M2.9,21.58a3.7,3.7,0,0,1,2.49,2.49.62.62,0,0,0,.59.44l.09,0,.09,0H20.94l.07,0a.58.58,0,0,0,.7-.42h0a3.69,3.69,0,0,1,2.48-2.49.62.62,0,0,0,.43-.68.28.28,0,0,0,0-.09V15.89s0-.07,0-.1a.62.62,0,0,0-.43-.67,3.69,3.69,0,0,1-2.48-2.49.61.61,0,0,0-.68-.42l-.09,0H6.16l-.09,0a.61.61,0,0,0-.68.42A3.68,3.68,0,0,1,2.9,15.12a.6.6,0,0,0-.42.67s0,.07,0,.1v4.92s0,.06,0,.09a.61.61,0,0,0,.42.68Zm.8-5.44a4.92,4.92,0,0,0,2.71-2.72H20.69a4.92,4.92,0,0,0,2.71,2.72v4.42a4.92,4.92,0,0,0-2.71,2.72H6.41A4.92,4.92,0,0,0,3.7,20.56Z"/><path class="cls-2" d="M13.55,22a3.7,3.7,0,1,0-3.7-3.69A3.69,3.69,0,0,0,13.55,22Zm0-6.15a2.46,2.46,0,1,1-2.46,2.46A2.46,2.46,0,0,1,13.55,15.89ZM6.77,19.27a.92.92,0,1,0-.92-.92A.93.93,0,0,0,6.77,19.27Zm0-1.23a.31.31,0,1,1,0,.62.31.31,0,0,1,0-.62Zm13.55,1.23a.92.92,0,1,0-.92-.92A.93.93,0,0,0,20.32,19.27Zm0-1.23a.31.31,0,1,1,0,.62.31.31,0,0,1,0-.62Z"/></g></g></svg>